<?xml version="1.0" standalone="no"?><!DOCTYPE svg PUBLIC "-//W3C//DTD SVG 1.1//EN" "http://www.w3.org/Graphics/SVG/1.1/DTD/svg11.dtd"><svg t="1527226722403" class="icon" style="" viewBox="0 0 1024 1024" version="1.1" xmlns="http://www.w3.org/2000/svg" p-id="1064" xmlns:xlink="http://www.w3.org/1999/xlink" width="200" height="200"><defs><style type="text/css"></style></defs><path d="M512 128C299.936 128 128 299.904 128 512c0 212.064 171.936 384 384 384s384-171.936 384-384C896 299.904 724.064 128 512 128zM736 544l-192 0 0 192c0 17.664-14.336 32-32 32s-32-14.336-32-32l0-192L288 544c-17.664 0-32-14.336-32-32 0-17.664 14.336-32 32-32l192 0L480 288c0-17.664 14.336-32 32-32s32 14.336 32 32l0 192 192 0c17.664 0 32 14.336 32 32C768 529.664 753.664 544 736 544z" p-id="1065"></path></svg>