<?xml version="1.0" standalone="no"?><!DOCTYPE svg PUBLIC "-//W3C//DTD SVG 1.1//EN" "http://www.w3.org/Graphics/SVG/1.1/DTD/svg11.dtd"><svg t="1529894439144" class="icon" style="" viewBox="0 0 1024 1024" version="1.1" xmlns="http://www.w3.org/2000/svg" p-id="2572" xmlns:xlink="http://www.w3.org/1999/xlink" width="200" height="200"><defs><style type="text/css"></style></defs><path d="M971.584 780.352c-3.584-13.312-8.832-25.92-15.552-37.568l29.568-44.608-0.064-0.064-42.048-42.048-0.064-0.064-44.608 29.568c-11.648-6.72-24.256-11.968-37.504-15.552l-10.624-52.416-0.064 0-59.456 0-0.064 0-10.624 52.416c-13.312 3.584-25.856 8.832-37.504 15.552l-44.608-29.568-0.064 0.064-42.048 42.048-0.064 0.064 29.568 44.608c-6.72 11.648-11.968 24.256-15.552 37.568l-52.416 10.624 0 0.064 0 59.456 0 0.064 52.416 10.624c3.584 13.312 8.832 25.92 15.552 37.568l-29.568 44.608 0.064 0.064 42.048 42.048 0.064 0.064 44.608-29.568c11.648 6.72 24.256 12.032 37.504 15.552l10.624 52.416 0.064 0 59.456 0 0.064 0 10.624-52.416c13.312-3.584 25.856-8.832 37.504-15.552l44.608 29.568 0.064-0.064 42.048-42.048 0.064-0.064-29.568-44.608c6.72-11.648 11.968-24.256 15.552-37.568l52.416-10.624 0-0.064 0-59.456 0-0.064L971.584 780.352zM820.928 891.392c-38.976 0-70.528-31.616-70.528-70.592 0-38.976 31.552-70.592 70.528-70.592 38.976 0 70.528 31.616 70.528 70.592C891.456 859.776 859.904 891.392 820.928 891.392z" p-id="2573" fill="#e6e6e6"></path><path d="M594.048 827.392c0-65.344 22.08-125.504 59.072-173.504-7.424-5.376-13.632-10.624-18.496-15.68-7.616-8-13.056-16-16-24.064s-4.48-16.192-4.48-25.024c0-8.576 0.384-17.984 0.96-28.16 1.344-16 6.464-28.352 15.424-36.928 8.96-8.576 18.944-17.6 30.464-26.944 5.44-4.672 9.984-11.136 14.08-19.52 4.096-8.384 7.616-16.832 10.944-25.408 3.328-9.984 6.656-20.352 9.984-30.848 4.672-1.344 9.344-3.52 14.08-7.04 4.096-3.328 8.384-8 13.056-14.08 4.672-6.08 8.576-14.656 12.096-25.984 3.328-11.136 4.48-21.504 3.328-30.464-0.96-8.96-2.752-16.832-5.44-23.424-2.56-7.424-6.656-14.272-12.096-21.12 0.576-25.216-0.576-50.624-4.096-76.032-2.56-21.312-7.424-43.968-14.464-68.032-7.04-24-17.152-45.696-30.464-64.896-12.672-17.984-26.752-32.832-42.368-44.544-15.616-11.712-31.424-20.928-47.424-27.584-16-6.656-32-11.136-48.448-14.08C517.568 1.6 501.824 0 486.528 0l0 0.256C483.968 0.128 481.472 0 478.976 0c-15.424 0-31.232 1.536-47.424 4.096-16.384 2.944-32.384 7.424-48.448 14.08-16 6.656-31.808 15.808-47.424 27.584C320 57.472 305.92 72.32 293.248 90.304c-13.248 19.136-23.424 40.832-30.464 64.896-7.04 24.064-11.904 46.72-14.464 68.032-3.52 25.408-4.672 50.816-4.096 76.032-5.44 6.848-9.536 13.696-12.096 21.12-2.752 6.656-4.48 14.464-5.44 23.424-1.152 9.024 0 19.328 3.328 30.464 3.52 11.328 7.424 19.904 12.096 25.984 4.672 6.08 8.96 10.752 13.056 14.08 4.672 3.52 9.344 5.696 14.08 7.04 3.328 10.56 6.656 20.928 9.984 30.848 3.328 8.576 6.848 17.024 10.944 25.408 4.096 8.384 8.576 14.848 14.08 19.52 11.52 9.408 21.504 18.368 30.464 26.944 8.96 8.576 14.08 20.928 15.424 36.928 0.576 10.176 0.96 19.52 0.96 28.16 0 8.768-1.536 17.024-4.48 25.024-2.944 8-8.384 16-16 24.064-7.616 8-18.368 16.384-32.384 25.024-17.216 11.328-37.312 19.904-60.352 25.984-23.04 6.08-123.392 40.64-145.088 48.064-21.504 7.232-40.448 17.216-56.448 29.888-15.808 12.48-25.792 31.296-29.888 55.872-6.656 42.624-8 49.472-4.48 76.8 3.52 27.136 8.96 43.392 16.384 48.832 6.08 4.48 23.232 9.984 51.968 16.448 28.608 6.4 208.128 40.256 416.896 40.448 0 0 0-0.064 0-0.064 57.92-0.32 113.408-3.2 163.904-7.296C615.232 950.656 594.048 891.52 594.048 827.392z" p-id="2574" fill="#e6e6e6"></path></svg>