<?xml version="1.0" standalone="no"?><!DOCTYPE svg PUBLIC "-//W3C//DTD SVG 1.1//EN" "http://www.w3.org/Graphics/SVG/1.1/DTD/svg11.dtd"><svg t="1527577336695" class="icon" style="" viewBox="0 0 1024 1024" version="1.1" xmlns="http://www.w3.org/2000/svg" p-id="6044" xmlns:xlink="http://www.w3.org/1999/xlink" width="200" height="200"><defs><style type="text/css"></style></defs><path d="M544 256l-320 0C206.336 256 192 241.664 192 224S206.336 192 224 192l320 0C561.664 192 576 206.336 576 224S561.664 256 544 256zM288 576l-64 0C206.336 576 192 590.336 192 608S206.336 640 224 640l64 0C305.664 640 320 625.664 320 608S305.664 576 288 576zM417.984 864c0 17.664-14.336 32-32 32L384.256 896 321.984 896 92.032 896C76.608 896 64 883.392 64 867.968L64 28.032C64 12.608 76.608 0 95.168 0l610.368 0L896 192l0 44.032 0 41.024 0 12.992c0 17.664-14.336 32-32 32S832 307.712 832 289.984L832 276.992 832 256l-190.464 0L641.536 64 128 64l0 768 193.984 0 62.272 0 1.728 0C403.712 832 417.984 846.336 417.984 864zM704 192l128 0-128-128L704 192zM288 448l-64 0C206.336 448 192 462.336 192 480S206.336 512 224 512l64 0C305.664 512 320 497.664 320 480S305.664 448 288 448zM368 352c0-17.664-14.336-32-32-32L224 320C206.336 320 192 334.336 192 352S206.336 384 224 384l112 0C353.664 384 368 369.664 368 352zM984.256 950.656c-15.744 13.76-39.808 12.16-53.632-3.712l-139.136-159.552c-41.6 27.904-91.648 44.16-145.408 44.16C501.376 831.552 384 714.176 384 569.472s117.376-262.08 262.08-262.08 262.08 117.376 262.08 262.08c0 63.36-23.424 120.768-60.928 166.08l140.8 161.408C1001.728 912.832 1000.192 936.832 984.256 950.656zM646.08 760.064c105.088 0 190.592-85.504 190.592-190.592s-85.504-190.592-190.592-190.592c-105.152 0-190.592 85.504-190.592 190.592S540.928 760.064 646.08 760.064z" p-id="6045"></path></svg>