<?xml version="1.0" standalone="no"?><!DOCTYPE svg PUBLIC "-//W3C//DTD SVG 1.1//EN" "http://www.w3.org/Graphics/SVG/1.1/DTD/svg11.dtd"><svg t="1528099767328" class="icon" style="" viewBox="0 0 1024 1024" version="1.1" xmlns="http://www.w3.org/2000/svg" p-id="5694" xmlns:xlink="http://www.w3.org/1999/xlink" width="200" height="200"><defs><style type="text/css"></style></defs><path d="M832 192l-640 0 0 64 640 0 0-64zM192 384l320 0 0-64-320 0 0 64zM960 896l-128 0 0-139.776c74.368-26.496 128-96.832 128-180.224 0-105.984-86.016-192-192-192s-192 86.016-192 192c0 83.456 53.632 153.728 128 180.224l0 139.776-128 0c-35.328 0-64 28.608-64 64l0 64 512 0 0-64c0-35.392-28.608-64-64-64zM192 512l320 0 0-64-320 0 0 64zM0 0l0 1024 384 0 0-128-256 0 0-768 768 0 0 128 128 0 0-256-1024 0z" p-id="5695"></path></svg>