<?xml version="1.0" standalone="no"?><!DOCTYPE svg PUBLIC "-//W3C//DTD SVG 1.1//EN" "http://www.w3.org/Graphics/SVG/1.1/DTD/svg11.dtd"><svg t="1528100320622" class="icon" style="" viewBox="0 0 1024 1024" version="1.1" xmlns="http://www.w3.org/2000/svg" p-id="7743" xmlns:xlink="http://www.w3.org/1999/xlink" width="200" height="200"><defs><style type="text/css"></style></defs><path d="M592.341816 618.203834c-8.815783-3.25616-17.613146-6.374174-26.327622-9.255805-5.5279-1.798972-40.417525-17.530258-18.61701-83.816964l-0.301875 0c56.825217-58.519812 100.256378-152.745846 100.256378-245.477854 0-142.606929-94.832855-217.334887-205.02656-217.334887-110.262266 0-204.554816 74.726935-204.554816 217.334887 0 93.107561 43.194778 187.705056 100.360755 246.089791 22.276353 58.45432-17.565051 80.153528-25.903973 83.20605-115.414613 41.736567-250.801093 117.821429-250.801093 192.922894 0 20.275789 0 8.003278 0 28.14399 0 96.461959 176.309518 122.637108 350.331947 125.317147-2.51017-13.360286-2.492774-27.2619 1.475608-40.792055l43.010583-146.541541c4.50664-15.491833 13.390985-29.42824 25.799596-40.514739L592.341816 618.203834zM813.168224 654.111648l-33.719986-33.772174 0.187265-0.201591-45.11143-45.097104L529.22429 778.511913c-2.812045 2.270716-5.221932 5.152347-6.304589 8.881274l-43.062771 146.71141c-1.88186 6.443759-0.100284 13.325493 4.596691 18.040888 3.475148 3.489474 8.134261 5.357008 12.897751 5.357008 1.715061 0 3.427052-0.239454 5.121648-0.74599l146.759505-43.093471c3.475148-1.017166 6.191003-3.187599 8.392134-5.767354l205.79404-203.977671-50.027393-50.009997L813.168224 654.111648zM548.549427 905.217686l-17.172101-17.189498 23.175839-78.93477 9.902534 9.902534 48.499597 3.968381 2.680039 47.263443 11.867282 11.83249L548.549427 905.217686zM753.172805 554.563398 882.066407 683.438581 911.546835 655.80522 782.653233 526.895245ZM945.454086 552.698934l-61.793368-61.742203c-17.037025-17.057491-44.535309-17.22429-61.405535-0.340761l-18.953677 19.155269 123.522268 123.552967 18.952654-19.189038C962.643584 597.285408 962.508507 569.787124 945.454086 552.698934z" p-id="7744"></path></svg>