<?xml version="1.0" standalone="no"?><!DOCTYPE svg PUBLIC "-//W3C//DTD SVG 1.1//EN" "http://www.w3.org/Graphics/SVG/1.1/DTD/svg11.dtd"><svg t="1528699135087" class="icon" style="" viewBox="0 0 1024 1024" version="1.1" xmlns="http://www.w3.org/2000/svg" p-id="1692" xmlns:xlink="http://www.w3.org/1999/xlink" width="200" height="200"><defs><style type="text/css"></style></defs><path d="M714.112 464H424.512l121.728-121.792a48.64 48.64 0 0 0 0.96-68.736 48.64 48.64 0 0 0-68.8 0.832L275.84 476.928c-0.448 0.384-1.024 0.512-1.472 0.96a47.36 47.36 0 0 0-13.696 34.624c0 12.224 4.48 24.448 13.76 33.664 0.384 0.384 0.896 0.512 1.28 0.832l202.688 202.688c19.264 19.2 50.048 19.712 68.8 0.96a48.64 48.64 0 0 0-0.96-68.736L424.448 560h289.664c27.2 0 49.28-21.504 49.28-48s-22.08-48-49.28-48z" p-id="1693" fill="#515151"></path><path d="M512 32A479.936 479.936 0 0 0 32 512c0 265.152 214.848 480 480 480s480-214.848 480-480S777.152 32 512 32zM512 896A384 384 0 1 1 512 128a384 384 0 0 1 0 768z" p-id="1694" fill="#515151"></path></svg>