<?xml version="1.0" standalone="no"?><!DOCTYPE svg PUBLIC "-//W3C//DTD SVG 1.1//EN" "http://www.w3.org/Graphics/SVG/1.1/DTD/svg11.dtd"><svg t="1530871361597" class="icon" style="" viewBox="0 0 1024 1024" version="1.1" xmlns="http://www.w3.org/2000/svg" p-id="5145" xmlns:xlink="http://www.w3.org/1999/xlink" width="200" height="200"><defs><style type="text/css"></style></defs><path d="M846.482981 64.860217 177.573301 64.860217c-23.055089 0-41.86141 17.087167-41.86141 38.019918l0 836.123029c0 20.902052 11.295254 24.306592 25.15082 7.628748l75.224262-46.520523c13.799284-16.738219 36.388768-16.738219 50.187029 0l75.221192 46.520523c13.799284 16.678868 36.388768 16.678868 50.187029 0l75.221192-46.520523c13.799284-16.738219 36.391838-16.738219 50.187029 0l75.281567 46.520523c13.741979 16.678868 36.331463 16.678868 50.130747 0l75.281567-46.520523c13.738909-16.738219 36.388768-16.738219 50.187029 0l75.221192 46.520523c13.799284 16.678868 25.093515 13.274328 25.093515-7.628748L888.286062 102.879112C888.287085 81.947384 869.480764 64.860217 846.482981 64.860217zM556.364417 650.89335 283.0731 650.89335l0-29.809933 273.291316 0L556.364417 650.89335zM760.025886 555.49563l-476.952786 0 0-29.809933 476.952786 0L760.025886 555.49563zM760.025886 460.129632l-476.952786 0 0-29.809933 476.952786 0L760.025886 460.129632zM760.025886 364.703259l-476.952786 0 0-29.809933 476.952786 0L760.025886 364.703259zM760.025886 269.336238l-476.952786 0 0-29.809933 476.952786 0L760.025886 269.336238z" p-id="5146"></path></svg>