<?xml version="1.0" standalone="no"?><!DOCTYPE svg PUBLIC "-//W3C//DTD SVG 1.1//EN" "http://www.w3.org/Graphics/SVG/1.1/DTD/svg11.dtd"><svg t="1528102527922" class="icon" style="" viewBox="0 0 1024 1024" version="1.1" xmlns="http://www.w3.org/2000/svg" p-id="23176" xmlns:xlink="http://www.w3.org/1999/xlink" width="200" height="200"><defs><style type="text/css"></style></defs><path d="M932.446198 742.146007V731.319057A201.284144 201.284144 0 0 0 731.333457 530.206316H585.069646v-104.87001C670.128337 395.126545 731.333457 314.752866 731.333457 219.395717a219.395717 219.395717 0 0 0-438.791434 0c0 95.371433 61.20512 175.687977 146.263811 205.940589v104.87001H292.542023A201.284144 201.284144 0 0 0 91.429282 731.319057v10.82695a146.263811 146.263811 0 1 0 109.697859 0V731.319057a91.543434 91.543434 0 0 1 91.414882-91.414882h146.263811v111.668992c-43.50777 25.381913-73.131906 72.03207-73.131905 126.009702a146.263811 146.263811 0 1 0 292.527622 0c0-53.977631-29.624135-100.627788-73.131905-126.009702V639.904175H731.333457a91.543434 91.543434 0 0 1 91.414882 91.414882v10.82695a146.263811 146.263811 0 1 0 109.697859 0z" p-id="23177"></path></svg>