<?xml version="1.0" standalone="no"?><!DOCTYPE svg PUBLIC "-//W3C//DTD SVG 1.1//EN" "http://www.w3.org/Graphics/SVG/1.1/DTD/svg11.dtd"><svg t="1566283518571" class="icon" viewBox="0 0 1024 1024" version="1.1" xmlns="http://www.w3.org/2000/svg" p-id="1351" xmlns:xlink="http://www.w3.org/1999/xlink" width="100" height="100"><defs><style type="text/css"></style></defs><path d="M518.4 713.6L368 864l150.4 150.4 48-44.8-105.6-105.6 105.6-105.6zM822.4 758.4L928 864l-105.6 105.6 48 44.8 150.4-150.4-150.4-150.4zM700.8 742.4l-96 224v25.6h64v-12.8l96-224V736h-64z" p-id="1352"></path><path d="M0 1024h384v-64H64V256h896v384h64V0H0v1024zM64 64h896v128H64V64z" p-id="1353"></path><path d="M128 96h64v64H128zM256 96h64v64H256zM384 96h64v64h-64z" p-id="1354"></path></svg>