<?xml version="1.0" standalone="no"?><!DOCTYPE svg PUBLIC "-//W3C//DTD SVG 1.1//EN" "http://www.w3.org/Graphics/SVG/1.1/DTD/svg11.dtd"><svg t="1564476618957" class="icon" viewBox="0 0 1024 1024" version="1.1" xmlns="http://www.w3.org/2000/svg" p-id="16841" xmlns:xlink="http://www.w3.org/1999/xlink" width="100" height="100"><defs><style type="text/css"></style></defs><path d="M832 131.84 892.16 192 700.16 384 853.333333 384 853.333333 469.333333 554.666667 469.333333 554.666667 170.666667 640 170.666667 640 323.84 832 131.84M892.16 832 832 892.16 640 700.16 640 853.333333 554.666667 853.333333 554.666667 554.666667 853.333333 554.666667 853.333333 640 700.16 640 892.16 832M192 131.84 384 323.84 384 170.666667 469.333333 170.666667 469.333333 469.333333 170.666667 469.333333 170.666667 384 323.84 384 131.84 192 192 131.84M131.84 832 323.84 640 170.666667 640 170.666667 554.666667 469.333333 554.666667 469.333333 853.333333 384 853.333333 384 700.16 192 892.16 131.84 832Z" p-id="16842"></path></svg>