<?xml version="1.0" standalone="no"?><!DOCTYPE svg PUBLIC "-//W3C//DTD SVG 1.1//EN" "http://www.w3.org/Graphics/SVG/1.1/DTD/svg11.dtd"><svg t="1528102950203" class="icon" style="" viewBox="0 0 1024 1024" version="1.1" xmlns="http://www.w3.org/2000/svg" p-id="1042" xmlns:xlink="http://www.w3.org/1999/xlink" width="200" height="200"><defs><style type="text/css"></style></defs><path d="M853.333333 554.666667H170.666667c-23.466667 0-42.666667 19.2-42.666667 42.666666v256c0 23.466667 19.2 42.666667 42.666667 42.666667h682.666666c23.466667 0 42.666667-19.2 42.666667-42.666667v-256c0-23.466667-19.2-42.666667-42.666667-42.666666zM298.666667 810.666667c-46.933333 0-85.333333-38.4-85.333334-85.333334s38.4-85.333333 85.333334-85.333333 85.333333 38.4 85.333333 85.333333-38.4 85.333333-85.333333 85.333334zM853.333333 128H170.666667c-23.466667 0-42.666667 19.2-42.666667 42.666667v256c0 23.466667 19.2 42.666667 42.666667 42.666666h682.666666c23.466667 0 42.666667-19.2 42.666667-42.666666V170.666667c0-23.466667-19.2-42.666667-42.666667-42.666667zM298.666667 384c-46.933333 0-85.333333-38.4-85.333334-85.333333s38.4-85.333333 85.333334-85.333334 85.333333 38.4 85.333333 85.333334-38.4 85.333333-85.333333 85.333333z" p-id="1043"></path></svg>