<?xml version="1.0" standalone="no"?><!DOCTYPE svg PUBLIC "-//W3C//DTD SVG 1.1//EN" "http://www.w3.org/Graphics/SVG/1.1/DTD/svg11.dtd"><svg t="1530176553205" class="icon" style="" viewBox="0 0 1025 1024" version="1.1" xmlns="http://www.w3.org/2000/svg" p-id="14036" xmlns:xlink="http://www.w3.org/1999/xlink" width="200.1953125" height="200"><defs><style type="text/css"></style></defs><path d="M512 0C229.473159 0 0 229.473159 0 512c0 283.166042 229.473159 512 512 512 283.166042 0 512-229.473159 512-512C1024.639201 229.473159 795.166042 0 512 0zM72.868914 512c0-45.383271 7.031211-89.48814 19.815231-131.036205 1.917603 3.835206 3.196005 7.670412 4.474407 8.948814 20.454432 18.536829 24.289638 11.505618 24.289638 24.289638 0 88.209738 12.144819 169.388265 97.797753 170.666667 2.556804 0 8.309613 70.31211 48.579276 72.868914 30.681648 2.556804 88.209738-12.78402 97.797753 0 2.556804 3.835206 0 42.187266 0 97.797753 0 54.971286 122.087391 122.087391 122.087391 122.087391-0.639201 24.928839 10.227216 51.13608 17.258427 72.868914C265.907615 947.29588 72.868914 752.339576 72.868914 512zM617.468165 938.347066c7.031211-37.073658 19.17603-90.766542 41.548065-108.66417 53.692884-43.465668 16.619226-95.240949-24.289638-97.797753-26.207241-1.278402-19.815231-46.661673-48.579276-48.579276-28.764045-2.556804-65.837703-40.908864-97.797753-72.868914-19.815231-19.815231-39.630462-24.289638-72.868914-24.289638-30.042447 0-72.868914 19.17603-72.868914 0 0-62.002497-23.011236-79.900125-24.289638-97.797753-1.278402-14.062422 8.309613-25.56804 48.579276-24.289638 22.372035 0.639201 2.556804-48.579276 24.289638-48.579276 21.732834 0 87.570537 12.78402 97.797753 24.289638 14.062422 16.619226 43.465668 149.573034 72.868914 24.289638 6.39201-26.846442-12.144819-56.888889 0-72.868914 29.403246-39.630462 72.868914-24.289638 72.868914-48.579276 0-19.17603-4.474407-60.724095-24.289638-72.868914-9.588015-5.752809-33.238452-3.196005-48.579276 0-57.52809 12.78402-115.05618 1.278402-97.797753-24.289638 18.536829-26.207241 92.044944-21.093633 97.797753-72.868914 3.196005-27.485643 19.17603-65.198502 23.650437-91.405743 155.325843 25.56804 283.166042 132.953808 338.137328 276.774032-9.588015 5.113608-17.897628 8.948814-19.815231 9.588015-145.098627 108.024969-98.436954 200.069913-48.579276 244.174782 25.56804 22.372035 31.96005 48.579276 48.579276 72.868914 0.639201 0 5.113608 4.474407 10.227216 8.948814C857.80774 813.702871 749.143571 905.747815 617.468165 938.347066z" p-id="14037"></path></svg>