<?xml version="1.0" standalone="no"?><!DOCTYPE svg PUBLIC "-//W3C//DTD SVG 1.1//EN" "http://www.w3.org/Graphics/SVG/1.1/DTD/svg11.dtd"><svg t="1564476964030" class="icon" viewBox="0 0 1024 1024" version="1.1" xmlns="http://www.w3.org/2000/svg" p-id="16968" xmlns:xlink="http://www.w3.org/1999/xlink" width="100" height="100"><defs><style type="text/css"></style></defs><path d="M405.333333 558.506667 465.493333 618.666667 273.493333 810.666667 426.666667 810.666667 426.666667 896 128 896 128 597.333333 213.333333 597.333333 213.333333 750.506667 405.333333 558.506667M465.493333 405.333333 405.333333 465.493333 213.333333 273.493333 213.333333 426.666667 128 426.666667 128 128 426.666667 128 426.666667 213.333333 273.493333 213.333333 465.493333 405.333333M618.666667 558.506667 810.666667 750.506667 810.666667 597.333333 896 597.333333 896 896 597.333333 896 597.333333 810.666667 750.506667 810.666667 558.506667 618.666667 618.666667 558.506667M558.506667 405.333333 750.506667 213.333333 597.333333 213.333333 597.333333 128 896 128 896 426.666667 810.666667 426.666667 810.666667 273.493333 618.666667 465.493333 558.506667 405.333333Z" p-id="16969"></path></svg>