<?xml version="1.0" standalone="no"?><!DOCTYPE svg PUBLIC "-//W3C//DTD SVG 1.1//EN" "http://www.w3.org/Graphics/SVG/1.1/DTD/svg11.dtd"><svg class="icon" width="200px" height="200.00px" viewBox="0 0 1024 1024" version="1.1" xmlns="http://www.w3.org/2000/svg"><path fill="#dbdbdb" d="M513.116 741.591L268.442 630.917v-81.561l244.674 110.673 244.675-110.673v81.561L513.116 741.591z m-244.674-246.61V413.42l244.674 110.673L757.791 413.42v81.561L513.116 605.655 268.442 494.981z m0-135.926l244.674-110.674 244.675 110.674L513.116 469.73 268.442 359.055zM190.536 299.325l-62.925-62.924C76.175 312.146 46.09 403.497 46.09 501.76s30.095 189.614 81.53 265.36l62.925-62.925A384.164 384.164 0 0 1 133.13 501.76a384.061 384.061 0 0 1 57.406-202.435zM906.24 501.76a384.164 384.164 0 0 1-57.416 202.435l62.925 62.924c51.436-75.745 81.531-167.106 81.531-265.359s-30.095-189.614-81.53-265.36l-62.926 62.925A384.164 384.164 0 0 1 906.24 501.76zM317.245 172.616C376.166 136.243 445.501 115.2 519.68 115.2s143.514 21.043 202.435 57.416l62.924-62.925A470.866 470.866 0 0 0 519.68 28.16a470.835 470.835 0 0 0-265.36 81.53l62.925 62.926z m404.87 658.288c-58.921 36.373-128.256 57.416-202.435 57.416s-143.514-21.043-202.435-57.416l-62.924 62.925c75.745 51.436 167.106 81.531 265.359 81.531s189.614-30.095 265.36-81.53l-62.925-62.926zM705.607 138.926a43.93 43.93 0 1 0 87.86 0 43.93 43.93 0 1 0-87.86 0zM244.715 138.926a43.93 43.93 0 1 0 87.86 0 43.93 43.93 0 1 0-87.86 0zM833.198 265.964a43.93 43.93 0 1 0 87.86 0 43.93 43.93 0 1 0-87.86 0zM838.615 733.164a43.93 43.93 0 1 0 87.86 0 43.93 43.93 0 1 0-87.86 0zM118.313 265.964a43.93 43.93 0 1 0 87.86 0 43.93 43.93 0 1 0-87.86 0zM118.313 738.918a43.93 43.93 0 1 0 87.86 0 43.93 43.93 0 1 0-87.86 0zM706.201 864.041a43.93 43.93 0 1 0 87.86 0 43.93 43.93 0 1 0-87.86 0zM245.309 864.041a43.93 43.93 0 1 0 87.86 0 43.93 43.93 0 1 0-87.86 0z" /></svg>