<?xml version="1.0" standalone="no"?><!DOCTYPE svg PUBLIC "-//W3C//DTD SVG 1.1//EN" "http://www.w3.org/Graphics/SVG/1.1/DTD/svg11.dtd"><svg t="1528100260559" class="icon" style="" viewBox="0 0 1024 1024" version="1.1" xmlns="http://www.w3.org/2000/svg" p-id="6911" xmlns:xlink="http://www.w3.org/1999/xlink" width="200" height="200"><defs><style type="text/css"></style></defs><path d="M984 392 984 200 584 200l0 64L264 264l0-72 168 0L432 0 32 0l0 192 168 0 0 136 32 0 32 0 320 0 0 64 168 0 0 128L584 520l0 56L264 576l-32 0-32 0 0 384 32 0 32 0 320 0 0 64 168 0 0 0 64 0 0 0 168 0 0-192-168 0L816 712l168 0L984 520l-168 0L816 392 984 392zM752 832 584 832l0 64L264 896 264 640l320 0 0 72 168 0L752 832z" p-id="6912"></path></svg>