<?xml version="1.0" standalone="no"?><!DOCTYPE svg PUBLIC "-//W3C//DTD SVG 1.1//EN" "http://www.w3.org/Graphics/SVG/1.1/DTD/svg11.dtd"><svg t="1528100424814" class="icon" style="" viewBox="0 0 1273 1024" version="1.1" xmlns="http://www.w3.org/2000/svg" p-id="8403" xmlns:xlink="http://www.w3.org/1999/xlink" width="248.6328125" height="200"><defs><style type="text/css"></style></defs><path d="M999.17651 1023.968971 0 1023.968971 0 976.369928C0 800.371383 383.67807 838.134117 383.67807 666.758947 383.67807 651.120148 384.17454 635.884731 383.926305 617.732554 365.556923 597.098027 323.729342 544.255023 307.097603 472.049695 290.124542 463.982061 276.006182 446.698706 267.038696 422.526833 254.533863 388.332475 253.66504 341.385049 278.02309 310.914215 277.867943 310.262598 277.867943 309.890246 277.774855 309.238629 273.275598 266.635314 261.143117 153.098876 327.856247 78.721493 366.301627 35.838914 423.892124 2.047938 498.952153 0 574.012181 2.047938 631.602679 35.838914 670.079089 78.721493 736.761189 153.098876 724.659738 266.635314 720.036363 309.238629 720.036363 309.766128 719.881216 310.262598 719.788128 310.790097 744.115148 341.260931 743.122208 388.332475 730.648405 422.402715 721.774007 446.698706 707.531529 463.982061 690.558468 472.049695 673.926729 544.255023 631.726796 597.098027 613.481531 617.577407 613.233296 635.760613 612.985061 652.919851 612.985061 668.52762 612.985061 836.582649 999.052392 798.944032 999.052392 976.369928L999.052392 1023.968971 999.17651 1023.968971ZM1092.854156 930.04309C1067.379049 814.706948 944.471743 770.924517 851.414684 738.405745 844.526166 735.985455 836.55162 733.161783 828.173692 730.089876 839.685585 717.305779 847.039544 702.318596 847.039544 683.235538 847.039544 672.499379 847.411897 661.887337 847.287779 649.320445 834.56574 635.264144 805.708433 598.773613 794.196539 548.971486 793.327717 548.475016 792.583013 547.451047 791.71419 546.923548 781.226266 540.903851 772.227751 530.167692 766.611436 514.68404 757.985273 491.132754 757.240568 458.613981 774.089512 437.638132 774.089512 437.23475 773.996424 436.986516 773.996424 436.614163 770.862459 407.043181 762.484531 328.725069 808.594164 277.371474 816.07224 268.931487 825.070755 261.360322 834.689858 254.347686 859.047908 236.536832 889.642859 224.125087 926.722948 223.101118 978.573013 224.528469 1018.290597 247.800491 1044.882761 277.371474 1090.961365 328.725069 1082.614466 407.167298 1079.480501 436.614163 1079.480501 436.986516 1079.356383 437.23475 1079.356383 437.638132 1096.205327 458.613981 1095.460622 491.132754 1086.83446 514.68404 1080.721675 531.439896 1070.885367 543.355171 1059.125239 548.971486 1047.613345 598.773613 1018.538832 635.388261 1005.909882 649.444562 1005.785764 662.011454 1005.661647 673.926729 1005.661647 684.662889 1005.661647 800.743735 1272.172843 774.772158 1272.172843 897.151965L1272.172843 930.04309 1092.854156 930.04309 1092.854156 930.04309Z" p-id="8404"></path></svg>