<?xml version="1.0" standalone="no"?><!DOCTYPE svg PUBLIC "-//W3C//DTD SVG 1.1//EN" "http://www.w3.org/Graphics/SVG/1.1/DTD/svg11.dtd"><svg t="1527248709122" class="icon" style="" viewBox="0 0 1024 1024" version="1.1" xmlns="http://www.w3.org/2000/svg" p-id="2557" xmlns:xlink="http://www.w3.org/1999/xlink" width="200" height="200"><defs><style type="text/css"></style></defs><path d="M512 938.667c-235.264 0-426.667-191.403-426.667-426.667s191.403-426.667 426.667-426.667c235.264 0 426.667 191.403 426.667 426.667s-191.403 426.667-426.667 426.667zM512 170.667c-188.203 0-341.333 153.131-341.333 341.333s153.131 341.333 341.333 341.333 341.333-153.131 341.333-341.333-153.131-341.333-341.333-341.333zM549.205 600.405l-79.701 0c-0.213-11.435-0.299-18.432-0.299-20.907 0-25.813 4.267-47.104 12.8-63.744 8.533-16.683 25.643-35.413 51.243-56.235s40.917-34.475 45.952-40.917c7.723-10.155 11.563-21.419 11.563-33.749 0-17.024-6.827-31.659-20.437-43.861-13.653-12.16-32.043-18.304-55.168-18.304-22.272 0-40.917 6.357-55.936 19.072-15.019 12.757-25.344 32-30.976 58.069l-80.64-9.984c2.304-37.333 18.176-68.992 47.701-95.019 29.44-26.027 68.181-39.083 116.096-39.083 50.432 0 90.539 13.184 120.363 39.509 29.739 26.368 44.672 57.045 44.672 92.032 0 19.371-5.504 37.717-16.469 54.997-10.923 17.28-34.304 40.789-70.144 70.613-18.603 15.36-30.08 27.776-34.517 37.163-4.523 9.429-6.571 26.197-6.101 50.347zM469.333 682.667l85.333 0 0 85.333-85.333 0 0-85.333z" p-id="2558"></path></svg>