<?xml version="1.0" standalone="no"?><!DOCTYPE svg PUBLIC "-//W3C//DTD SVG 1.1//EN" "http://www.w3.org/Graphics/SVG/1.1/DTD/svg11.dtd"><svg t="1530176224613" class="icon" style="" viewBox="0 0 1194 1024" version="1.1" xmlns="http://www.w3.org/2000/svg" p-id="8775" xmlns:xlink="http://www.w3.org/1999/xlink" width="233.203125" height="200"><defs><style type="text/css"></style></defs><path d="M1152.166884 0H42.722295A42.842451 42.842451 0 0 0 0 42.722295v938.55541a42.842451 42.842451 0 0 0 42.722295 42.722295h1109.444589a42.842451 42.842451 0 0 0 42.722295-42.722295V42.722295a42.842451 42.842451 0 0 0-42.722295-42.722295z m-44.057366 937.887875H86.779661v-851.77575h1021.329857z" p-id="8776"></path><path d="M212.837132 853.324433h769.882451c25.579974 0 42.855802-18.143625 42.161564-46.874368V217.616688c0-28.730743-17.275828-46.874368-42.842451-46.874367H212.837132c-25.579974 0-42.855802 18.143625-42.855802 46.874367v588.900131c0 28.66399 17.275828 46.807614 42.855802 46.807614z m539.449074-451.160782q44.417836-45.205528 114.68266-45.205528 43.93721 0 73.5491 11.428213v61.733716q-30.386232-17.809857-68.903051-17.796506-43.93721 0-70.264824 28.036506t-26.314263 73.375541q0 44.137471 24.965841 71.039166t67.554628 26.901695q40.052151 0 72.961669-19.345189v58.636349q-32.709257 16.02086-85.351134 16.020861-67.741538 0-107.526676-40.559479t-39.771786-108.140808q0-70.93236 44.417836-116.124537z m-339.40193-40.172308h103.561513q159.674576 0 159.674576 146.136949 0 69.423729-44.711551 111.585293t-115.350196 42.094811h-103.174342zM254.371213 612.063625h25.366362v-200.260757h-25.366362v-49.811525h114.963024v49.744772h-25.740182v200.32751h25.740182v49.744771h-114.963024z" p-id="8777"></path><path d="M608.966258 509.102894q0-44.711551-27.101956-69.784198t-70.451734-25.059296h-34.64511v195.29429h34.83202q45.485893 0 71.426337-27.101956t25.940443-73.34884z" p-id="8778"></path></svg>