<?xml version="1.0" standalone="no"?><!DOCTYPE svg PUBLIC "-//W3C//DTD SVG 1.1//EN" "http://www.w3.org/Graphics/SVG/1.1/DTD/svg11.dtd"><svg t="1528102143242" class="icon" style="" viewBox="0 0 1024 1024" version="1.1" xmlns="http://www.w3.org/2000/svg" p-id="22518" xmlns:xlink="http://www.w3.org/1999/xlink" width="200" height="200"><defs><style type="text/css"></style></defs><path d="M920.050553 448.51687L734.664253 633.639224c-50.54972 50.541722-117.432119 75.616623-183.066771 75.616622h-0.407918c-66.018575 0.071985-132.197116-25.754763-182.050978-75.592627l-7.894394-7.878398 113.081004-112.95303 7.902393 7.886396c19.468041 19.388057 44.071038 28.754153 68.961975 28.81814 26.082696-0.103979 50.965636-9.478073 70.385687-28.81814L806.961551 335.587835c19.388057-19.428049 28.778148-44.183015 28.86613-69.737818-0.087982-25.330849-9.462076-50.021828-28.842135-69.43388l-7.902393-7.886396c-19.452044-19.372061-44.191013-28.730157-69.673831-28.826138-25.498815 0.09598-50.237784 9.454077-69.689828 28.826138l-76.224499 76.128518c-31.217652 31.193656-81.847356 31.193656-113.081004 0-31.233648-31.17766-31.233648-81.735378-0.007998-112.929035l76.232497-76.128518A258.251482 258.251482 0 0 1 729.409322-0.015917a258.275477 258.275477 0 0 1 182.762833 75.616623l7.894395 7.870399a257.371661 257.371661 0 0 1 75.696606 182.378912 257.707593 257.707593 0 0 1-75.712603 182.666853zM619.983575 361.214624a79.791774 79.791774 0 0 1 20.35586 14.764997l14.333085 14.30909 7.894395 7.878398h-0.007999l0.007999 0.015997L549.493909 511.128137l-0.007998-0.015996-7.894395-7.878398c-19.460043-19.372061-44.191013-28.730157-69.681829-28.826138-25.482818 0.09598-50.221787 9.454077-69.68183 28.826138l-185.402296 185.154347c-19.388057 19.420051-28.762151 44.071038-28.850134 69.329901 0.09598 25.642785 9.486071 50.40575 28.850134 69.8258l7.902393 7.8704c19.468041 19.396056 44.071038 28.746154 68.961975 28.818139 26.082696-0.103979 50.973634-9.478073 70.401684-28.818139l79.879755-79.775777c31.233648-31.169661 81.863352-31.169661 113.081004 0.015997a79.751782 79.751782 0 0 1 0 112.921036l-79.879755 79.775777c-50.54972 50.533723-117.448116 75.600626-183.07477 75.600626h-0.407918c-66.002578 0.071985-132.197116-25.746764-182.050978-75.600626l-7.886396-7.8704a257.763581 257.763581 0 0 1-75.712603-182.762833 257.163703 257.163703 0 0 1 75.712603-182.266934l185.3863-185.146349A258.179497 258.179497 0 0 1 471.909687 314.696084a258.387454 258.387454 0 0 1 148.073888 46.51854z" p-id="22519"></path></svg>