<?xml version="1.0" standalone="no"?><!DOCTYPE svg PUBLIC "-//W3C//DTD SVG 1.1//EN" "http://www.w3.org/Graphics/SVG/1.1/DTD/svg11.dtd"><svg t="1530176139444" class="icon" style="" viewBox="0 0 1473 1024" version="1.1" xmlns="http://www.w3.org/2000/svg" p-id="8101" xmlns:xlink="http://www.w3.org/1999/xlink" width="287.6953125" height="200"><defs><style type="text/css"></style></defs><path d="M808.435944 287.443345h-71.866987v251.509851h35.933494v-107.788179h35.933493a71.866987 71.866987 0 0 0 0-143.721672z m0 107.788178h-35.933493v-71.854685h35.933493a35.921192 35.921192 0 0 1 0 71.854685z m359.29803 17.960596c-0.295243 0-0.602787 0.049207-0.89803 0.049207C1157.363575 183.493321 968.641999 0 736.568957 0S315.762037 183.493321 306.30197 413.229025c-0.307544 0-0.590485-0.049207-0.89803-0.049208C136.734262 413.179817 0 549.91408 0 718.583758s136.734262 305.40394 305.40394 305.40394h862.330034c168.669678 0 305.40394-136.734262 305.40394-305.40394s-136.734262-305.391639-305.40394-305.391639zM556.913791 772.502451H197.615762a35.921192 35.921192 0 1 1 0-71.866987h359.310331a35.921192 35.921192 0 1 1-0.012302 71.866987z m215.58866 143.721672a35.933494 35.933494 0 0 1-71.866987 0v-35.933493a35.945795 35.945795 0 0 1 71.866987 0v35.933493z m53.894089-125.761076a35.933494 35.933494 0 0 1-35.933493 35.933493h-107.788179a35.945795 35.945795 0 0 1-35.933494-35.933493v-107.788179a35.945795 35.945795 0 0 1 35.933494-35.933494h107.788179a35.933494 35.933494 0 0 1 35.933493 35.933494v107.788179zM610.807881 592.847285a53.881788 53.881788 0 0 1-53.89409-53.894089V287.443345a53.881788 53.881788 0 0 1 53.89409-53.89409h251.509851a53.881788 53.881788 0 0 1 53.894089 53.89409v251.509851a53.881788 53.881788 0 0 1-53.894089 53.894089H610.807881z m664.714272 179.655166H916.224123a35.933494 35.933494 0 0 1 0-71.866987h359.29803a35.933494 35.933494 0 0 1 0 71.866987zM646.741374 538.953196h35.933494V287.443345h-35.933494v251.509851z" p-id="8102"></path></svg>