<?xml version="1.0" standalone="no"?><!DOCTYPE svg PUBLIC "-//W3C//DTD SVG 1.1//EN" "http://www.w3.org/Graphics/SVG/1.1/DTD/svg11.dtd"><svg t="1530176443561" class="icon" style="" viewBox="0 0 1024 1024" version="1.1" xmlns="http://www.w3.org/2000/svg" p-id="10782" xmlns:xlink="http://www.w3.org/1999/xlink" width="200" height="200"><defs><style type="text/css"></style></defs><path d="M0 1024l1024 0 0-384-341.376 0L682.624 394.688c0-29.44-23.872-53.312-53.248-53.312C599.872 341.312 576 365.248 576 394.688L576 640 0 640 0 1024zM128 832.064C128 796.672 156.672 768 192 768s64 28.672 64 64.064C256 867.328 227.328 896 192 896S128 867.328 128 832.064zM320 832.064C320 796.672 348.672 768 384 768s64 28.672 64 64.064C448 867.328 419.328 896 384 896S320 867.328 320 832.064L320 832.064 320 832.064zM629.376 170.688c-123.776 0-224 100.288-224 224C405.312 424.064 429.248 448 458.688 448S512 424.064 512 394.688c0-64.832 52.48-117.312 117.376-117.312 64.768 0 117.248 52.48 117.248 117.312C746.624 424.064 770.496 448 800 448c29.376 0 53.376-23.936 53.376-53.312C853.376 270.912 753.024 170.688 629.376 170.688L629.376 170.688 629.376 170.688zM629.376 0C411.328 0 234.688 176.64 234.688 394.688 234.688 424.064 258.56 448 288 448s53.312-23.936 53.312-53.312c0-159.104 128.832-288 288-288 159.104 0 288 128.896 288 288 0 29.44 23.872 53.312 53.248 53.312C1000.128 448 1024 424.064 1024 394.688 1024 176.64 847.36 0 629.376 0L629.376 0 629.376 0z" p-id="10783"></path></svg>