<?xml version="1.0" standalone="no"?><!DOCTYPE svg PUBLIC "-//W3C//DTD SVG 1.1//EN" "http://www.w3.org/Graphics/SVG/1.1/DTD/svg11.dtd"><svg t="1530177101541" class="icon" style="" viewBox="0 0 1024 1024" version="1.1" xmlns="http://www.w3.org/2000/svg" p-id="19860" xmlns:xlink="http://www.w3.org/1999/xlink" width="200" height="200"><defs><style type="text/css"></style></defs><path d="M864 0H160a96 96 0 0 0-96 96v832a96 96 0 0 0 96 96h704a96 96 0 0 0 96-96V96a96 96 0 0 0-96-96z m-242.304 928L512 818.24 402.272 928l30.4-243.2a146.272 146.272 0 1 1 158.656 0zM768 352H256a32 32 0 0 1 0-64h512a32 32 0 0 1 0 64z m0-160H256a32 32 0 0 1 0-64h512a32 32 0 0 1 0 64z" fill="" p-id="19861"></path></svg>