<?xml version="1.0" standalone="no"?><!DOCTYPE svg PUBLIC "-//W3C//DTD SVG 1.1//EN" "http://www.w3.org/Graphics/SVG/1.1/DTD/svg11.dtd"><svg t="1529894409530" class="icon" style="" viewBox="0 0 1024 1024" version="1.1" xmlns="http://www.w3.org/2000/svg" p-id="2312" xmlns:xlink="http://www.w3.org/1999/xlink" width="200" height="200"><defs><style type="text/css"></style></defs><path d="M896.544864 740.556989l96.733803 14.062924c14.882123 2.150399 18.056521 12.492792 7.167995 22.937585l-69.973287 68.130088c-10.683726 10.444793-17.373855 30.993046-14.882123 45.875169l16.486389 96.290069c1.809065 10.683726-2.389332 17.032522-9.762127 17.032522a20.275186 20.275186 0 0 1-9.762127-2.833065l-86.425542-45.533836A54.374364 54.374364 0 0 0 802.097994 951.296048c-8.738128 0-17.407988 1.809065-24.063984 5.222397l-86.425542 45.533836a21.230919 21.230919 0 0 1-9.762127 2.833065c-7.372795 0-11.605326-6.348796-9.762127-17.032522l16.452256-96.255936c2.491732-14.779723-4.198397-35.46451-14.84799-45.909302l-69.973287-68.130088c-10.888526-10.444793-7.509328-20.787186 7.406928-22.937585l96.733802-14.062924c14.882123-2.150399 32.358378-15.018657 39.048508-28.398914l43.144504-87.654342c3.515731-6.690129 7.850661-10.10346 12.151459-10.10346 4.43733 0 8.874661 3.413331 12.151458 10.10346l43.144505 87.654342c6.690129 13.516791 24.200517 26.248516 39.082641 28.398914z m-366.591755 56.968495c0 47.991435 20.753053 91.613806 54.886363 124.074584H17.031851c0-102.502332 308.565128-175.206283 324.539517-179.30228 18.431988-12.561058 11.673592-148.787101 11.673592-148.787101-4.881063-27.374915-27.511448-29.354647-34.713577-48.810634a17799.497467 17799.497467 0 0 1-8.533328-87.142342c0 1.433599-20.445853-3.788797-23.039984-5.35893-28.808514-17.646922-29.525314-89.634074-32.290112-119.432454-1.126399-13.687458 18.329588-24.84905 12.697591-49.971166-31.709846-146.534302 13.687458-229.102781 85.16261-251.972099 49.732234-19.626654 144.998303-56.046896 231.594513-4.095997l21.196785 19.455987 34.884244 5.939196c17.407988 9.89866 36.181309 42.495972 36.181309 42.495972 8.908794 36.010643 10.069327 39.116774 9.045327 76.117282-0.4096 14.233591-8.635728 94.412737-6.485329 114.448991 1.740799 16.657056 6.075729 17.954121 12.970658 31.778112 11.673592 23.859184 7.953061 57.002629 3.345065 81.169012-2.457598 13.277858-7.782395 32.051179-15.56479 42.905572-8.669861 11.878392-26.385049 12.014925-33.894377 25.975449-11.093326 20.070387-4.881063 48.025568-11.673592 69.461287-8.191995 24.575984-32.119445 26.282649-33.723711 58.163161 4.915197 0.7168 1.877332 31.914645-0.4096 65.638356-42.939705 33.450644-70.041553 82.466078-70.041553 137.215909z" p-id="2313" fill="#e6e6e6"></path></svg>