<?xml version="1.0" standalone="no"?><!DOCTYPE svg PUBLIC "-//W3C//DTD SVG 1.1//EN" "http://www.w3.org/Graphics/SVG/1.1/DTD/svg11.dtd"><svg t="1529895696812" class="icon" style="" viewBox="0 0 1024 1024" version="1.1" xmlns="http://www.w3.org/2000/svg" p-id="3273" xmlns:xlink="http://www.w3.org/1999/xlink" width="200" height="200"><defs><style type="text/css"></style></defs><path d="M756.589043 541.436356 675.810543 541.436356C677.44422 531.723447 678.444587 521.783885 678.444587 511.467708 678.444587 445.297431 641.694852 387.722823 587.788139 358.424976L618.748642 255.046868C626.767467 257.037528 635.198673 258.123863 643.921045 258.123863 702.721984 258.123863 750.464465 209.924475 750.464465 150.359206 750.464465 90.864911 702.721984 42.666667 643.921045 42.666667 585.004548 42.666667 537.302852 90.864911 537.302852 150.359206 537.302852 195.521665 564.700314 234.044774 603.639987 250.097119L573.387563 351.601327C552.892996 342.823649 530.359168 338.057054 506.638042 338.057054 462.051879 338.057054 421.473998 355.124761 390.924745 383.259577L232.218179 222.900969C248.628559 205.345613 259.767453 179.241522 259.767453 150.471389 259.767453 90.981672 212.100876 42.778849 153.2195 42.778849 94.267883 42.778849 46.565053 90.981672 46.565053 150.471389 46.565053 210.072143 94.267883 258.276111 153.2195 258.276111 181.732891 258.276111 207.532933 246.944572 226.615878 228.642862L221.044165 234.155811 379.785853 394.509841C351.870644 425.306121 334.867745 466.492982 334.867745 511.503194 334.867745 550.964971 347.936005 587.314261 369.872781 616.495351L233.891505 727.448038C214.401841 701.678204 183.738164 685.06266 149.210088 685.06266 90.368364 685.06266 42.666667 733.377664 42.666667 792.866236 42.666667 852.320469 90.368364 900.558775 149.210088 900.558775 208.091463 900.558775 255.828281 852.320469 255.828281 792.866236 255.828281 774.036813 251.040551 756.293722 242.613874 740.880128L379.971652 628.873156C411.340007 663.384038 456.408793 685.13821 506.638042 685.13821 532.102737 685.13821 556.198865 679.588629 577.914718 669.461333L625.76823 779.027772C593.470878 797.592768 571.75049 832.551232 571.75049 872.688388 571.75049 932.141478 619.532625 980.416418 678.484241 980.416418 737.361084 980.416418 784.991407 932.141478 784.991407 872.688388 784.991407 813.198673 737.361084 764.923733 678.484241 764.923733 664.822332 764.923733 651.93987 767.548565 639.946752 772.12285L592.059255 662.105391C630.887906 639.563657 660.290641 601.980356 672.318878 557.377664L752.358711 557.377664C751.13289 563.793796 750.539238 570.469777 750.539238 577.257937 750.539238 636.751091 798.242069 685.026031 857.047539 685.026031 916.075059 685.026031 963.776759 636.751091 963.776759 577.257937 963.701986 517.920469 916.075059 469.64553 857.012416 469.64553 810.717811 469.64553 771.254724 499.689728 756.589043 541.436356Z" p-id="3274"></path><path d="M209.352406 214.61094 465.316962 473.245658 209.352406 214.61094Z" p-id="3275"></path><path d="M625.395383 214.61094 552.742204 444.363343 625.395383 214.61094Z" p-id="3276"></path><path d="M786.288606 564.120457 562.02775 542.787123 786.288606 564.120457Z" p-id="3277"></path><path d="M640.912004 805.359663 562.02775 622.495949 640.912004 805.359663Z" p-id="3278"></path><path d="M399.607463 603.743219 209.352406 758.470972 399.607463 603.743219Z" p-id="3279"></path></svg>