<?xml version="1.0" standalone="no"?><!DOCTYPE svg PUBLIC "-//W3C//DTD SVG 1.1//EN" "http://www.w3.org/Graphics/SVG/1.1/DTD/svg11.dtd"><svg t="1532604389525" class="icon" style="" viewBox="0 0 1024 1024" version="1.1" xmlns="http://www.w3.org/2000/svg" p-id="10804" xmlns:xlink="http://www.w3.org/1999/xlink" width="200" height="200"><defs><style type="text/css"></style></defs><path d="M512.0512 0C229.2224 0 0 229.1968 0 512c0 282.8288 229.2224 512 512.0512 512C794.8032 1024 1024 794.8288 1024 512 1024 229.1968 794.8032 0 512.0512 0z m298.6496 364.928L464.512 711.1424a36.864 36.864 0 0 1-52.0704 0l-26.0352-26.0608L213.3248 512a36.8128 36.8128 0 1 1 52.0448-52.0704l173.1072 173.1328 320.128-320.1792a36.8384 36.8384 0 0 1 52.096 52.0448z" fill="" p-id="10805"></path></svg>