<?xml version="1.0" standalone="no"?><!DOCTYPE svg PUBLIC "-//W3C//DTD SVG 1.1//EN" "http://www.w3.org/Graphics/SVG/1.1/DTD/svg11.dtd"><svg t="1530175958016" class="icon" style="" viewBox="0 0 1024 1024" version="1.1" xmlns="http://www.w3.org/2000/svg" p-id="6240" xmlns:xlink="http://www.w3.org/1999/xlink" width="200" height="200"><defs><style type="text/css"></style></defs><path d="M887.568 86.239l-774.842 0c-47.54 0-85.981 38.54-85.981 85.981l0 688.671c0 47.582 38.54 85.981 85.981 85.981l774.842 0c47.582 0 85.981-38.534 85.981-85.981l0-688.671c0-47.54-38.54-85.981-85.981-85.981zM801.557 689.022l-602.59 0 0-85.981 602.59 0 0 85.981zM801.557 516.691l-602.59 0 0-85.981 602.59 0 0 85.981zM801.557 344.595l-602.59 0 0-85.981 602.59 0 0 85.981z" p-id="6241"></path></svg>