<?xml version="1.0" standalone="no"?><!DOCTYPE svg PUBLIC "-//W3C//DTD SVG 1.1//EN" "http://www.w3.org/Graphics/SVG/1.1/DTD/svg11.dtd"><svg t="1530176837789" class="icon" style="" viewBox="0 0 1024 1024" version="1.1" xmlns="http://www.w3.org/2000/svg" p-id="18485" xmlns:xlink="http://www.w3.org/1999/xlink" width="200" height="200"><defs><style type="text/css"></style></defs><path d="M510.908594 2.182812C228.999234 2.182812 0 231.182046 0 513.091406S228.999234 1024 510.908594 1024c281.905517 0 510.904751-229.00692 510.904751-510.908594C1021.813345 231.182046 792.814111 2.182812 510.908594 2.182812z m-18.242618 947.920558c-227.17382-9.123231-409.642273-192.502469-418.765503-418.769346h145.971688c9.127073 146.886317 126.818284 263.666742 272.793815 272.786129v145.983217z m0-218.969061c-105.835623-9.115545-190.680898-93.96082-199.804128-199.800285h147.797103a71.633116 71.633116 0 0 0 52.003182 52.007025v147.79326z m0-288.292547c-25.544277 6.38703-44.70921 26.458906-52.003182 52.003183h-147.800946c9.123231-105.835623 93.968506-190.680898 199.804128-199.804128v147.800945z m0-220.786789c-146.89016 9.127073-263.666742 126.818284-272.793815 272.793815H73.900473C83.01986 267.671125 266.402942 85.202672 492.665976 76.083285v145.971688z m36.485236 72.989687a222.831254 222.831254 0 0 1 56.564798 12.770217c5.476244-25.544277 20.079562-47.437724 40.139908-62.951828a313.383352 313.383352 0 0 0-96.704706-23.715019V75.168656c104.920994 4.561615 200.714914 45.619995 273.704601 111.308023L750.848788 239.386805c10.034016 6.38703 20.079562 14.603318 27.377377 24.637334l51.088554-51.088554c70.241958 73.89663 114.947324 173.345223 119.516625 281.913203h-145.975531c-1.825415-33.756721-10.037859-66.602657-22.811919-96.708549-15.51026 20.068033-37.399865 34.663664-62.951828 40.139908 6.38703 18.246461 10.948645 36.492922 12.770217 56.564798h-147.79326c-2.740044-9.127073-6.390873-16.428732-11.867117-23.722705l53.832441-53.828597c-9.123231-7.301659-17.331832-17.331832-24.633491-27.369692l-57.471741 57.479427c-4.565458-1.829258-8.216288-3.646986-13.692532-4.561616V295.04466h0.914629z m0 289.211018c25.544277-6.390873 46.526938-26.455063 52.921654-52.921654h146.882474c-9.119388 105.839466-93.964663 190.684741-199.800285 199.800285v-146.878631z m0 365.847692v-145.979374c146.886317-9.119388 263.662899-126.806755 272.786129-272.786129h145.975531c-9.123231 227.17382-191.591684 409.642273-418.76166 418.765503z m163.315049-545.579944c-40.143751 0-72.989687-32.842093-72.989687-72.989687 0-40.139908 32.845936-72.985844 72.989687-72.985844 40.139908 0 72.982001 32.842093 72.982001 72.985844 0 40.143751-32.842093 72.989687-72.982001 72.989687z" p-id="18486"></path></svg>