<?xml version="1.0" standalone="no"?><!DOCTYPE svg PUBLIC "-//W3C//DTD SVG 1.1//EN" "http://www.w3.org/Graphics/SVG/1.1/DTD/svg11.dtd"><svg t="1530175156760" class="icon" style="" viewBox="0 0 1024 1024" version="1.1" xmlns="http://www.w3.org/2000/svg" p-id="2252" xmlns:xlink="http://www.w3.org/1999/xlink" width="200" height="200"><defs><style type="text/css"></style></defs><path d="M1023.448563 471.726064c-3.194533-1.140905-2.015598-3.879076-2.129689-5.932704-5.476343-58.528411-19.851742-114.622892-44.913615-167.789051-50.237837-106.940801-128.199658-187.450643-233.086831-241.947857-19.851742-10.268142-42.365595-8.252544-55.562059 5.324222-17.113571 17.531902-20.650375 42.099383-8.784966 62.255367 5.324222 8.975117 12.778133 16.124786 21.601129 21.79128 18.939018 12.321771 38.90485 22.970215 56.893114 36.851222 92.565401 71.154423 147.93731 163.986036 162.845131 280.168165 9.317388 73.360172-1.216965 143.982173-30.538216 211.675852-30.576246 70.622001-77.277278 128.54193-140.179158 173.037213-66.628835 47.119364-140.74961 72.71366-222.286266 76.060313-59.973557 2.3959-117.893486-8.214514-173.379485-31.374879-51.568893-21.525069-97.09099-52.253435-136.109931-92.22313-44.457253-45.446037-76.706826-98.422046-96.938869-158.661814-23.578697-70.089579-26.81126-141.396123-11.903439-213.61539C114.109485 402.587239 122.209909 378.704301 131.146995 355.049543 142.632103 324.777538 127.876402 295.304167 96.767734 285.454356 74.786303 278.532868 50.332912 289.713734 41.319765 310.744411c-17.607963 41.18666-29.663522 83.818465-36.052589 128.199658C3.66991 449.896754 4.544604 461.191711 0.019015 471.726064c0 2.662111 0 5.324222 0 7.986333 1.483176 1.331055 0.912724 3.080443 0.988784 4.75377C0.703558 486.862066 1.882493 489.486147 0.019015 491.729926c0 13.310555 0 26.65914 0 39.969695 1.597267 1.597267 0.798633 3.650895 0.988784 5.514373C0.931739 538.77323 1.350071 540.446557 0.019015 541.701552c0 3.993166 0 7.986333 0 11.979499 1.787417 9.469509 1.064844 19.053109 2.281809 28.522618 5.590433 42.517715 16.657209 83.628315 32.972146 123.217708 31.907301 77.353339 79.483028 143.525811 143.449751 197.832875 71.192453 60.429919 152.729109 98.612196 244.686028 115.117284 15.402213 2.814232 31.032608 2.548021 46.358761 5.058011 3.993166 0 7.986333 0 11.979499 0 1.216965-1.331055 2.814232-0.912724 4.411498-1.064844 1.863478 0.190151 3.955136-0.608483 5.590433 1.064844 13.348585 0 26.65914 0 39.969695 0 1.597267-1.673327 3.688925-0.836663 5.590433-1.064844 1.483176 0.11409 3.080443-0.266211 4.411498 1.064844 2.662111 0 5.324222 0 7.986333 0 11.066776-1.863478 22.399762-0.988784 33.580628-2.50999 65.830201-8.670876 127.324965-30.576246 184.902622-63.548392 66.971106-38.296368 122.266954-89.599049 166.115725-152.91926 42.783926-61.646884 70.964272-129.378593 83.970586-203.423308 2.814232-15.744485 2.814232-31.64109 5.210131-47.309515 0-3.993166 0-7.986333 0-11.979499-1.331055-1.254995-0.988784-2.928322-1.064844-4.487558 0.190151-1.863478-0.608483-3.917106 1.064844-5.514373 0-10.686474 0-21.334918 0-31.983362-1.863478-1.939538-0.798633-4.411498-1.064844-6.503157 0-1.863478 0-3.688925 0-5.476343 0.380302-2.662111-0.950754-5.590433 1.064844-7.986333C1023.448563 477.050286 1023.448563 474.426205 1023.448563 471.726064L1023.448563 471.726064zM521.070192 156.380004c31.983362-3.726955 56.969175-25.061873 66.324593-56.702964 8.594815-29.20716-2.091659-61.494763-25.860507-81.688777C550.847805 8.937087 537.727401 5.590433 525.709871 0c-10.001931 0-19.965832 0-29.967763 0-1.559236 3.194533-4.94392 3.004382-7.606031 3.879076-38.106217 12.13162-61.570824 51.378742-53.698581 89.941321C442.84216 134.474634 479.769442 161.095744 521.070192 156.380004L521.070192 156.380004zM182.715888 211.371611c85.491792 118.045606 176.231746 232.174107 265.716705 347.139271 20.346134 26.126718 47.994058 36.851222 80.547872 29.435341 32.629874-7.453911 53.090099-28.902919 59.631286-61.418703 6.274976-31.717151-5.058011-58.528411-30.386095-78.494243-57.235386-45.103766-114.622892-90.093441-172.162519-134.702815-74.386987-57.767808-148.583822-115.687737-226.659734-168.511624C151.379039 139.342494 143.278615 133.599941 132.21184 130.595558c0.684543 6.122855 2.928322 9.469509 4.90589 12.930253C150.884647 167.104509 166.743222 189.35215 182.715888 211.371611L182.715888 211.371611z" p-id="2253"></path></svg>