<?xml version="1.0" standalone="no"?><!DOCTYPE svg PUBLIC "-//W3C//DTD SVG 1.1//EN" "http://www.w3.org/Graphics/SVG/1.1/DTD/svg11.dtd"><svg t="1530175392758" class="icon" style="" viewBox="0 0 1024 1024" version="1.1" xmlns="http://www.w3.org/2000/svg" p-id="3306" xmlns:xlink="http://www.w3.org/1999/xlink" width="200" height="200"><defs><style type="text/css"></style></defs><path d="M832.498478 65.99711 192.280258 65.99711c-70.722738 0-128.043235 50.982138-128.043235 113.8817l0 473.469452c0 62.894446 57.320497 113.876584 128.043235 113.876584l640.21822 0c70.706365 0 128.029932-50.987255 128.029932-113.876584L960.52841 179.87881C960.52841 116.978225 903.204843 65.99711 832.498478 65.99711L832.498478 65.99711zM667.773809 821.555242c0-10.736529-8.713452-19.424398-19.424398-19.424398l-271.923156 0c-10.716063 0-19.424398 8.688893-19.424398 19.424398l0 77.688383L162.773224 899.243625l0 58.267055 699.207729 0 0-58.267055L667.773809 899.243625 667.773809 821.555242 667.773809 821.555242 667.773809 821.555242 667.773809 821.555242zM776.514419 320.248791 509.766123 557.490054c-2.62478 5.692652-6.534833 11.044544-11.721973 15.667841l0 0.027629c-11.251252 9.997702-26.249851 14.631232-40.962947 13.909801-14.626115 0.697895-29.521361-3.920286-40.708144-13.846356l0-0.022513c-5.114484-4.556783-8.979512-9.81453-11.589966-15.415085l-156.458401-139.179876c-20.98187-18.652825-20.98187-48.883337 0-67.525929l0-0.037862c20.973684-18.635429 54.979172-18.635429 75.957972 0l133.104507 118.405737 243.452731-216.537731c20.909216-18.561751 54.769394-18.561751 75.664284 0l0.011256 0C797.409308 271.520997 797.409308 301.664527 776.514419 320.248791L776.514419 320.248791 776.514419 320.248791zM776.514419 320.248791" p-id="3307"></path></svg>