<?xml version="1.0" standalone="no"?><!DOCTYPE svg PUBLIC "-//W3C//DTD SVG 1.1//EN" "http://www.w3.org/Graphics/SVG/1.1/DTD/svg11.dtd"><svg t="1529983306443" class="icon" style="" viewBox="0 0 1024 1024" version="1.1" xmlns="http://www.w3.org/2000/svg" p-id="2485" xmlns:xlink="http://www.w3.org/1999/xlink" width="200" height="200"><defs><style type="text/css"></style></defs><path d="M940.006811 220.143546 662.210106 220.143546 662.210106 0 83.992166 0 83.992166 1024l856.014646 0L940.006811 220.143546zM515.19977 753.823598 230.951339 753.823598 230.951339 607.060893l284.248431 0L515.19977 753.823598zM515.19977 533.680052 230.951339 533.680052 230.951339 386.917347l284.248431 0L515.19977 533.680052zM515.19977 313.536506 230.951339 313.536506 230.951339 166.773801l284.248431 0L515.19977 313.536506zM859.252276 753.788806 717.123968 753.788806 717.123968 607.035311 859.252276 607.035311 859.252276 753.788806zM859.252276 533.680052 717.123968 533.680052 717.123968 386.917347 859.252276 386.917347 859.252276 533.680052z" p-id="2486"></path></svg>