<?xml version="1.0" standalone="no"?><!DOCTYPE svg PUBLIC "-//W3C//DTD SVG 1.1//EN" "http://www.w3.org/Graphics/SVG/1.1/DTD/svg11.dtd"><svg t="1526980746678" class="icon" style="" viewBox="0 0 1024 1024" version="1.1" xmlns="http://www.w3.org/2000/svg" p-id="1052" xmlns:xlink="http://www.w3.org/1999/xlink" width="200" height="200"><defs><style type="text/css"></style></defs><path d="M572.762899 648.445602c-3.187599 0-5.67321 0-8.150634 0-85.167728 0-170.332387 0.00921-255.502162 0-12.626575-0.004093-20.85498-5.79089-22.884197-16.144702-0.398066-2.068102-0.361227-4.240581-0.361227-6.356778-0.01535-75.68475-0.017396-151.365406-0.010233-227.049133 0.002047-14.354939 7.776104-21.991874 22.354124-21.991874 85.553515-0.004093 171.108053-0.004093 256.664637-0.004093 2.303462 0 4.623297 0 7.889691 0 0-2.455935 0-4.668323 0-6.888897 0-67.358107-0.00921-134.720308 0.00921-202.084555 0-9.269108 4.418636-16.662495 11.904121-19.493983 8.612145-3.261277 16.253172-1.759063 22.745027 5.099135 3.722788 3.933589 7.776104 7.552 11.599176 11.377118 48.228421 48.124044 96.448656 96.270601 144.664797 144.394644 61.930491 61.795415 123.866099 123.576503 185.79659 185.369871 10.30981 10.277064 10.367115 21.11797 0.178055 31.284517-88.62855 88.477101-177.24789 176.961364-265.903046 265.402649-25.213241 25.152866-50.562583 50.15326-75.754335 75.327616-6.482645 6.487761-13.715373 9.330506-22.566972 5.968945-8.608052-3.26537-12.661368-10.04068-12.661368-20.694321-0.01228-65.22656-0.00921-130.462331-0.00921-195.687868C572.762899 653.970432 572.762899 651.672086 572.762899 648.445602L572.762899 648.445602zM413.558967 150.576437c0 25.614377 0 50.693566 0 76.477812-2.51017 0-4.76963 0-7.027044 0-64.842821 0-129.686664-0.00921-194.528462 0.004093-41.089837 0.00614-71.349001 30.327726-71.351048 71.498404-0.00614 142.462642 0.254803 284.923238-0.171915 427.375647-0.11768 37.692461 28.557406 64.847937 55.0682 69.806879 5.858428 1.083681 11.910261 1.576915 17.873066 1.589195 64.262606 0.113587 128.526235 0.069585 192.790888 0.069585 2.282996 0 4.569062 0 7.229658 0 0 25.535583 0 50.605561 0 76.04086-0.913812 0.183172-1.981121 0.591471-3.050476 0.591471-68.327178 0-136.662543 0.696872-204.973348-0.295735-66.763566-0.957815-125.886105-51.624774-138.627291-117.203352-1.797949-9.238408-2.677992-18.805298-2.687202-28.217668-0.165776-144.014998-0.545422-288.024879 0.089028-432.029644 0.26606-60.150962 30.150694-103.332437 82.34238-131.394562 18.413372-9.905604 38.751582-14.378475 59.716057-14.431687 67.744917-0.183172 135.490857-0.069585 203.236797-0.065492C410.631288 150.395312 411.774321 150.495596 413.558967 150.576437L413.558967 150.576437z" p-id="1053"></path></svg>