<?xml version="1.0" standalone="no"?><!DOCTYPE svg PUBLIC "-//W3C//DTD SVG 1.1//EN" "http://www.w3.org/Graphics/SVG/1.1/DTD/svg11.dtd"><svg t="1525264738231" class="icon" style="" viewBox="0 0 1024 1024" version="1.1" xmlns="http://www.w3.org/2000/svg" p-id="5771" xmlns:xlink="http://www.w3.org/1999/xlink" width="200" height="200"><defs><style type="text/css"></style></defs><path d="M1008.576 784.704c7.936 15.04 11.712 29.248 11.328 42.496s-4.352 24.704-11.904 34.432c-7.552 9.664-18.176 17.408-31.872 23.104-13.696 5.76-29.568 8.576-47.552 8.576L511.232 893.312 233.344 893.312l-145.92 0c-19.456 0-35.52-3.584-48.128-10.752s-21.824-16.32-27.584-27.456-8.256-23.68-7.552-37.632c0.704-14.016 4.672-28.16 11.904-42.496 10.112-19.392 21.056-40.128 32.96-62.4 11.904-22.208 24-44.8 36.224-67.776L121.984 576c12.224-22.976 24.128-44.8 35.648-65.6 26.688-49.472 53.76-98.944 81.152-148.48L376.128 629.76 646.4 130.688c48.32 84.608 94.784 167.424 139.456 248.512 19.456 34.432 39.296 70.08 59.456 107.008s40.192 73.152 60.032 108.672c19.84 35.52 38.528 69.568 56.192 102.208C979.2 729.664 994.88 758.848 1008.576 784.704L1008.576 784.704z" p-id="5772"></path></svg>