<?xml version="1.0" standalone="no"?><!DOCTYPE svg PUBLIC "-//W3C//DTD SVG 1.1//EN" "http://www.w3.org/Graphics/SVG/1.1/DTD/svg11.dtd"><svg t="1525263722868" class="icon" style="" viewBox="0 0 1024 1024" version="1.1" xmlns="http://www.w3.org/2000/svg" p-id="2030" xmlns:xlink="http://www.w3.org/1999/xlink" width="200" height="200"><defs><style type="text/css"></style></defs><path d="M1002.68563 555.956148l-211.095704-0.303407c-11.377778 2.996148-23.058963-3.640889-26.093037-14.866963l-31.819852-99.51763-99.707259 460.344889c0 0-2.048 24.310519-15.36 24.310519s-35.877926 0.379259-35.877926 0.379259c-11.036444 2.88237-22.33837-3.565037-25.296593-14.373926L433.682963 311.523556 339.892148 745.28237c-2.996148 10.846815-15.928889 19.911111-27.192889 17.028741L279.514074 762.728296c-11.643259 3.034074-23.589926-3.640889-26.699852-14.904889l-62.539852-191.905185L21.352296 555.918222C9.557333 555.956148 0 546.588444 0 534.945185L0 493.037037c0-11.605333 9.557333-20.973037 21.352296-20.973037L231.348148 471.343407c12.743111-0.379259 23.589926 1.024 26.699852 12.288l32.502519 99.821037 91.591111-470.85037c0 0 4.513185-14.298074 19.190519-14.298074s45.473185-0.568889 45.473185-0.568889c11.036444-2.920296 22.376296 3.527111 25.296593 14.336l122.614519 595.77837 90.642963-427.918222c2.958222-10.846815 11.605333-19.873185 22.641778-16.990815l36.446815-0.455111c11.377778-2.996148 23.058963 3.640889 26.093037 14.829037l62.27437 194.711704 169.870222 0C1014.442667 472.026074 1024 481.431704 1024 493.037037l0 41.946074C1024 546.588444 1014.442667 555.956148 1002.68563 555.956148L1002.68563 555.956148zM1002.68563 555.956148" p-id="2031"></path></svg>