<?xml version="1.0" standalone="no"?><!DOCTYPE svg PUBLIC "-//W3C//DTD SVG 1.1//EN" "http://www.w3.org/Graphics/SVG/1.1/DTD/svg11.dtd"><svg t="1530176979298" class="icon" style="" viewBox="0 0 1103 1024" version="1.1" xmlns="http://www.w3.org/2000/svg" p-id="19027" xmlns:xlink="http://www.w3.org/1999/xlink" width="215.4296875" height="200"><defs><style type="text/css"></style></defs><path d="M471.385464 159.825422s30.937681 25.787822 30.937681 46.4001c0 0 128.887741 10.274033 237.163204 77.337781 0 0 51.562802-41.237399 97.962902-10.274032 0 0 25.77498-46.4001 30.924838-139.200301C868.374089 134.050442 770.42403 5.137016 564.185665 0c5.162701 0-77.337781 108.275462-92.800201 159.825422zM945.711871 567.139449c-30.924839-82.500483-97.95006-144.363002-97.95006-144.363002-15.411049 15.411049-46.412943 15.411049-46.412943 15.411049-87.637499 128.951953-226.850643 180.501913-226.850643 180.501913-10.274033 41.250241-25.77498 51.562802-25.774979 51.562801 41.250241 67.025221 134.050442 128.887741 134.050442 128.887741 201.075663-56.712661 262.938183-232.000502 262.938183-232.000502zM414.672804 659.93965s-92.800201 15.411049-159.825422 0c0 0 108.26262 170.137982 366.012416 144.363003 0 0-92.800201-87.650342-108.26262-113.425322 0.038528 0.05137-72.098025 15.462419-97.924374-30.937681zM512.635706 247.475763c-10.274033 72.187922-72.187922 67.025221-72.187923 67.025222 0 154.675563 25.787822 211.388223 30.937681 211.388223 72.17508-10.274033 97.962902 51.562802 97.962902 51.562802C698.236107 510.426789 760.111469 422.776447 760.111469 422.776447c-56.712661-36.08754-36.08754-108.275462-36.08754-108.275462-92.813043-56.712661-211.388223-67.025221-211.388223-67.025222zM878.68665 391.838766c30.937681 20.625121 87.650342 113.425321 87.650341 113.425321 46.4001-201.075663-56.712661-319.650843-56.71266-319.650843-5.137016 61.86252-30.937681 118.57518-36.08754 118.57518 30.937681 36.13891 5.149859 87.650342 5.149859 87.650342zM435.362137 144.363002C471.385464 56.712661 507.473004 5.137016 507.473004 5.137016c-247.475763 41.250241-319.650843 262.951025-319.650843 262.951026 72.17508-41.250241 149.512861-56.712661 154.675563-56.712661 15.462419-77.324939 92.864413-67.012379 92.864413-67.012379zM388.897824 623.85211s0-51.562802 36.08754-82.500483c0 0-41.250241-108.26262-30.937681-226.850642a75.501298 75.501298 0 0 1-51.549959-56.712661s-103.125604 20.625121-170.150825 72.17508c0 0-36.08754 144.363002 46.4001 283.576146 0 0 87.650342 20.625121 170.150825 10.31256zM1062.078134 940.523484H815.501348v82.192262h246.576786a41.096131 41.096131 0 0 0 41.096131-41.096131 41.096131 41.096131 0 0 0-41.096131-41.096131zM651.116824 860.89973H486.732301v79.623754h-79.623754v82.192262h326.200539v-82.192262h-82.192262v-79.623754zM0 982.903869a41.096131 41.096131 0 0 0 41.096131 41.096131h246.576786v-82.192262H41.096131a41.096131 41.096131 0 0 0-41.096131 41.096131z" p-id="19028"></path></svg>