<?xml version="1.0" standalone="no"?><!DOCTYPE svg PUBLIC "-//W3C//DTD SVG 1.1//EN" "http://www.w3.org/Graphics/SVG/1.1/DTD/svg11.dtd"><svg t="1531125258406" class="icon" style="" viewBox="0 0 1024 1024" version="1.1" xmlns="http://www.w3.org/2000/svg" p-id="5028" xmlns:xlink="http://www.w3.org/1999/xlink" width="200" height="200"><defs><style type="text/css"></style></defs><path d="M511.998 64.124c247.407 0 447.89 200.496 447.89 447.869 0 247.364-200.48 447.882-447.89 447.882-247.358 0-447.888-200.515-447.888-447.882 0-247.353 200.53-447.869 447.888-447.869z m29.598 602.132c0.493-28.241 2.465-48.671 5.877-61.232 3.431-12.582 8.634-23.688 15.747-33.377 7.066-9.668 22.115-24.741 45.13-45.13 34.269-30.343 57.331-56.141 69.084-77.338 11.796-21.192 17.674-44.363 17.674-69.46 0-43.447-16.732-80.454-50.244-111.072-33.507-30.614-78.369-45.936-134.627-45.936-53.115 0-95.842 14.267-128.164 42.772-32.255 28.53-51.744 69.623-58.231 123.25l72.566 8.634c6.281-40.034 19.538-69.46 39.677-88.326 20.144-18.816 45.26-28.24 75.368-28.24 31.087 0 57.444 10.41 78.91 31.198 21.442 20.793 32.16 44.949 32.16 72.428 0 15.16-3.655 29.179-11.012 41.987-7.267 12.851-23.213 30.052-47.687 51.61C539.4 499.6 522.42 516.038 513 527.298c-12.831 15.435-22.116 30.755-27.857 45.94-7.853 20.14-11.778 44.095-11.778 71.813 0 4.717 0.113 11.804 0.382 21.224l67.85-0.019z m8.279 141.695v-80.478h-80.463v80.478h80.463z" p-id="5029"></path></svg>