<?xml version="1.0" standalone="no"?><!DOCTYPE svg PUBLIC "-//W3C//DTD SVG 1.1//EN" "http://www.w3.org/Graphics/SVG/1.1/DTD/svg11.dtd"><svg t="1529913154715" class="icon" style="" viewBox="0 0 1024 1024" version="1.1" xmlns="http://www.w3.org/2000/svg" p-id="4644" xmlns:xlink="http://www.w3.org/1999/xlink" width="200" height="200"><defs><style type="text/css"></style></defs><path d="M465.454545 242.036364m-197.818181 0a197.818182 197.818182 0 1 0 395.636363 0 197.818182 197.818182 0 1 0-395.636363 0Z" p-id="4645"></path><path d="M565.527273 700.509091c0-88.436364 72.145455-160.581818 160.581818-160.581818h9.309091c-67.490909-72.145455-162.909091-116.363636-269.963637-116.363637-204.8 0-370.036364 165.236364-370.036363 370.036364h495.709091c-16.290909-27.927273-25.6-58.181818-25.6-93.090909z" p-id="4646"></path><path d="M749.381818 586.472727c62.836364 0 114.036364 51.2 114.036364 114.036364S812.218182 814.545455 749.381818 814.545455s-114.036364-51.2-114.036363-114.036364 51.2-114.036364 114.036363-114.036364m0-16.290909c-72.145455 0-132.654545 58.181818-132.654545 132.654546s58.181818 132.654545 132.654545 132.654545 132.654545-58.181818 132.654546-132.654545-58.181818-132.654545-132.654546-132.654546z" p-id="4647"></path><path d="M721.454545 761.018182c-2.327273 0-4.654545 0-6.981818-2.327273l-41.890909-41.890909c-2.327273-2.327273-2.327273-9.309091 0-11.636364 2.327273-2.327273 9.309091-2.327273 11.636364 0l41.890909 41.890909c2.327273 2.327273 2.327273 9.309091 0 11.636364 0 0-2.327273 2.327273-4.654546 2.327273z" p-id="4648"></path><path d="M721.454545 761.018182c-2.327273 0-4.654545 0-6.981818-2.327273-2.327273-2.327273-2.327273-9.309091 0-11.636364l100.072728-100.072727c2.327273-2.327273 9.309091-2.327273 11.636363 0 2.327273 2.327273 2.327273 9.309091 0 11.636364l-100.072727 100.072727s-2.327273 2.327273-4.654546 2.327273z" p-id="4649"></path></svg>