<?xml version="1.0" standalone="no"?><!DOCTYPE svg PUBLIC "-//W3C//DTD SVG 1.1//EN" "http://www.w3.org/Graphics/SVG/1.1/DTD/svg11.dtd"><svg t="1530257872275" class="icon" style="" viewBox="0 0 1026 1024" version="1.1" xmlns="http://www.w3.org/2000/svg" p-id="5735" xmlns:xlink="http://www.w3.org/1999/xlink" width="200.390625" height="200"><defs><style type="text/css"></style></defs><path d="M956.179378 0H136.163442v136.159363H36.721211c-18.868526 0-36.717131 13.258964-36.717131 32.12749v68.334661c0 18.868526 17.848606 36.207171 36.717131 36.207171h99.952191v68.334662H36.721211c-18.868526 0-36.717131 13.258964-36.717131 32.12749v68.334661c0 18.868526 17.848606 36.207171 36.717131 36.207171h99.952191v68.334662H36.721211c-18.868526 0-36.717131 13.258964-36.717131 32.12749v68.334661c0 18.868526 17.848606 36.207171 36.717131 36.207171h99.952191v68.334662H36.721211c-18.868526 0-36.717131 13.258964-36.717131 32.12749v68.334661c0 18.868526 17.848606 36.207171 36.717131 36.207171h99.952191v136.159363h820.015937c37.737052 0 65.784861-32.63745 65.78486-70.374502v-887.330677c-0.50996-37.737052-28.557769-66.294821-66.294821-66.294821z m-615.521912 953.625498H204.498104v-68.334661H240.705275c18.868526 0 31.61753-17.338645 31.61753-36.207172v-68.334661c0-18.868526-12.749004-32.12749-31.61753-32.12749h-36.717132v-68.334661H240.705275c18.868526 0 31.61753-17.338645 31.61753-36.207172V577.2749c0-18.868526-12.749004-32.12749-31.61753-32.12749h-36.717132V476.812749H240.705275c18.868526 0 31.61753-17.338645 31.61753-36.207171V372.780876c0-18.868526-12.749004-32.12749-31.61753-32.12749h-36.717132V272.318725H240.705275c18.868526 0 31.61753-17.338645 31.61753-36.207171V168.286853c0-18.868526-12.749004-32.12749-31.61753-32.12749h-36.717132V68.334661h136.159363v885.290837z" p-id="5736"></path></svg>