<?xml version="1.0" standalone="no"?><!DOCTYPE svg PUBLIC "-//W3C//DTD SVG 1.1//EN" "http://www.w3.org/Graphics/SVG/1.1/DTD/svg11.dtd"><svg t="1529926388459" class="icon" style="" viewBox="0 0 1024 1024" version="1.1" xmlns="http://www.w3.org/2000/svg" p-id="7535" xmlns:xlink="http://www.w3.org/1999/xlink" width="200" height="200"><defs><style type="text/css"></style></defs><path d="M0.170667 899.406507v-439.569067c0-69.40672 52.056747-130.14016 112.790186-130.14016h780.858027c78.086827 0 130.143573 52.056747 130.143573 121.46688v448.242347c0 52.056747-34.70336 121.46688-138.820266 121.46688H156.340907C52.227413 1020.873387 0.170667 951.466667 0.170667 899.406507z m388.57728-58.518187l-52.053334 43.380053c173.520213 95.4368 390.427307-17.349973 390.427307-199.550293h95.4368l-112.790187-130.146987-130.14016 130.146987h95.4368c8.676693 69.40672-112.790187 234.257067-286.317226 156.17024z m216.910506-314.197333l52.053334-43.380054c-173.523627-95.4368-390.427307 17.353387-390.427307 199.553707H163.167573l121.46688 130.146987 130.143574-130.146987h-95.4368c-8.676693-69.410133 112.790187-234.257067 286.317226-156.17024z" p-id="7536"></path><path d="M512.068267 0c338.37056 0 321.017173 321.020587 321.017173 321.020587v71.123626H191.04768V321.020587S173.694293 0 512.068267 0z m164.846933 348.76416V260.287147s-26.03008-130.143573-173.52704-130.143574c-147.493547 0-156.17024 121.46688-156.17024 121.46688v97.153707h329.693867z" p-id="7537"></path></svg>