<?xml version="1.0" standalone="no"?><!DOCTYPE svg PUBLIC "-//W3C//DTD SVG 1.1//EN" "http://www.w3.org/Graphics/SVG/1.1/DTD/svg11.dtd"><svg t="1529926282330" class="icon" style="" viewBox="0 0 1024 1024" version="1.1" xmlns="http://www.w3.org/2000/svg" p-id="6569" xmlns:xlink="http://www.w3.org/1999/xlink" width="200" height="200"><defs><style type="text/css"></style></defs><path d="M270.765886 268.188227c0-123.748338 105.85759-219.42664 237.57237-219.42664L508.338256 24.378294 508.338256 0l-2.419831 0 0 24.378294 0 24.383293c129.480936 0 227.878049 93.675443 227.878049 219.42664l0 48.761587 48.486606 0 0-48.761587C782.28408 114.891958 661.602528 0 505.919426 0l0 48.761587 2.419831 0L508.339256 0C350.933275 0 222.28228 116.28186 222.28228 268.188227l0 121.906467 48.483606 0L270.765886 268.188227 270.765886 268.188227zM246.525583 975.238733c-66.610337 0-121.211515-54.911156-121.211515-121.911466L125.314068 536.376454c0-66.990311 54.601178-121.901467 121.211515-121.901467l533.333667 0c66.610337 0 121.211515 54.911156 121.211515 121.901467l0 316.951813c0 66.990311-54.601178 121.911466-121.211515 121.911466L246.525583 975.239733 246.525583 975.238733zM949.552371 853.328267 949.552371 536.376454c0-93.918426-76.309658-170.663054-169.693121-170.663054L246.525583 365.7134c-93.388463 0-169.695121 76.744628-169.695121 170.663054l0 316.951813c0 93.928425 76.306659 170.673053 169.695121 170.673053l533.333667 0C873.242713 1024.00032 949.552371 947.256692 949.552371 853.328267zM513.193916 878.526503c-106.562541 0-193.258472-86.948914-193.258472-193.825432 0-106.872519 86.695931-193.816433 193.258472-193.816433 53.121282 0 102.632816 21.168518 139.43024 59.615827 3.169778 3.304769 18.868679 20.248583 23.448359 26.133171 7.539472 9.654324 5.839591 23.603348-3.779735 31.162819-9.634326 7.554471-23.543352 5.85959-31.082824-3.804734-2.619817-3.354765-16.048877-18.073735-20.528563-22.748408-28.358015-29.637925-66.535343-45.961783-107.487476-45.961783-82.151249 0-148.986571 67.030308-148.986571 149.419541 0 82.394232 66.835322 149.42454 148.986571 149.42454 82.14925 0 148.979571-67.030308 148.979571-149.42454 0-12.259142 9.914306-22.203446 22.14345-22.203446 12.224144 0 22.133451 9.944304 22.133451 22.203446C706.449389 791.57759 619.750457 878.526503 513.193916 878.526503zM655.647945 621.099523l-65.450418 0c-12.224144 0-22.133451-9.939304-22.133451-22.203446s9.909306-22.203446 22.133451-22.203446l54.866159 0 0-55.026148c0-12.261142 9.909306-22.203446 22.133451-22.203446 12.229144 0 22.14345 9.941304 22.14345 22.203446l0 65.640405C689.340586 605.940584 674.221644 621.099523 655.647945 621.099523z" p-id="6570"></path></svg>