<?xml version="1.0" standalone="no"?><!DOCTYPE svg PUBLIC "-//W3C//DTD SVG 1.1//EN" "http://www.w3.org/Graphics/SVG/1.1/DTD/svg11.dtd"><svg t="1530176704851" class="icon" style="" viewBox="0 0 1024 1024" version="1.1" xmlns="http://www.w3.org/2000/svg" p-id="15263" xmlns:xlink="http://www.w3.org/1999/xlink" width="200" height="200"><defs><style type="text/css"></style></defs><path d="M131.648 968.448c-60.288 0-111.36-45.12-118.784-105.088l-12.16-97.28a77.952 77.952 0 0 1 66.56-87.552 40.064 40.064 0 0 1 5.248-0.384h873.344c20.672 1.024 40.32 8 55.168 22.72a77.504 77.504 0 0 1 22.4 65.28l-12.16 97.536a120.064 120.064 0 0 1-118.464 104.768H131.648z m-56.064-218.752a6.528 6.528 0 0 0-3.84 7.04l12.16 97.792a48.256 48.256 0 0 0 47.808 42.368H892.608a48.32 48.32 0 0 0 47.616-42.176l12.16-97.472c0-4.672-2.816-7.552-6.4-7.552h-870.4zM892.672 284.992a35.648 35.648 0 0 1-25.344-10.496c-196.16-196.48-515.648-196.736-712.192-0.512a36.16 36.16 0 0 1-50.88 0.256 35.392 35.392 0 0 1-0.256-50.304c225.024-224.704 589.952-224.384 814.016 0a35.84 35.84 0 0 1-25.344 61.056z" p-id="15264"></path><path d="M256.704 413.376a35.712 35.712 0 0 1-23.36-62.912c156.032-152.448 404.48-151.296 557.44 1.792a35.84 35.84 0 1 1-50.56 50.56 324.352 324.352 0 0 0-458.176 0 35.648 35.648 0 0 1-25.344 10.56z" p-id="15265"></path><path d="M638.08 539.52a35.712 35.712 0 0 1-25.216-10.432 144.256 144.256 0 0 0-203.712 0 35.84 35.84 0 0 1-50.624-50.624 215.936 215.936 0 0 1 304.896 0 35.84 35.84 0 0 1-25.28 61.12z" p-id="15266"></path></svg>