<?xml version="1.0" standalone="no"?><!DOCTYPE svg PUBLIC "-//W3C//DTD SVG 1.1//EN" "http://www.w3.org/Graphics/SVG/1.1/DTD/svg11.dtd"><svg t="1532503192445" class="icon" style="" viewBox="0 0 1024 1024" version="1.1" xmlns="http://www.w3.org/2000/svg" p-id="9451" xmlns:xlink="http://www.w3.org/1999/xlink" width="200" height="200"><defs><style type="text/css"></style></defs><path d="M494.403013 125.132427C420.937986 125.132427 347.471215 125.055876 274.006188 125.177662 250.375496 125.215938 235.872149 139.010858 235.809395 162.049367 235.596725 240.878229 235.535714 319.708831 236.032523 398.535953 236.081332 406.159782 239.015122 414.60828 243.054095 421.177786 250.204663 432.811868 262.29892 435.731262 275.601208 435.719084 421.370297 435.590338 567.14113 435.652971 712.910221 435.635573 740.484006 435.633833 753.857766 422.165996 753.871712 394.341281 753.90832 318.118648 753.911808 241.897756 753.86823 165.676862 753.854285 138.584606 740.327123 125.160264 713.058394 125.146346 640.172103 125.10981 567.287558 125.134167 494.403013 125.132427M154.212383 64.00087 767.815494 64.00087C781.016678 70.419014 795.772787 74.831161 807.152339 83.605002 857.190624 122.190416 901.270688 167.03739 940.827168 216.251277 954.577459 233.360528 960.049331 252.915946 959.9552 275.204598 959.413069 403.85454 959.693722 532.507961 959.693722 661.161382 959.691981 725.487226 959.719872 789.814803 959.676288 854.140646 959.653626 890.351226 945.244416 919.85833 915.228416 939.933952 902.546701 948.415501 886.77431 952.291789 872.406938 958.261062L150.726001 958.261062C149.680087 957.791315 148.674266 957.163245 147.579542 956.876179 93.085659 942.581933 64.026671 905.094336 64.021441 848.99952 64.012725 759.425613 64.017955 669.849973 64.019698 580.27607 64.023184 443.450781 63.948227 306.623752 64.071994 169.798462 64.117317 119.088342 96.042111 79.130221 145.421473 67.125561 148.426733 66.394843 151.285565 65.056932 154.212383 64.00087" p-id="9452"></path><path d="M683.931244 280.366776C683.926014 317.461176 683.742979 354.555576 684.088131 391.646496 684.154372 398.730986 681.785376 400.47775 675.112442 400.409898 646.660084 400.11935 618.200753 400.12283 589.748396 400.415117 583.333453 400.48123 581.253827 398.624858 581.271259 392.06753 581.476956 317.591661 581.475212 243.114054 581.283462 168.636446 581.266029 162.091296 583.378777 160.196648 589.791975 160.261021 618.244333 160.548088 646.703664 160.572446 675.154278 160.257541 681.947492 160.180989 684.14217 162.14175 684.082901 169.087055 683.77087 206.177976 683.936473 243.272376 683.931244 280.366776" p-id="9453"></path></svg>