<?xml version="1.0" standalone="no"?><!DOCTYPE svg PUBLIC "-//W3C//DTD SVG 1.1//EN" "http://www.w3.org/Graphics/SVG/1.1/DTD/svg11.dtd"><svg t="1530176261731" class="icon" style="" viewBox="0 0 1024 1024" version="1.1" xmlns="http://www.w3.org/2000/svg" p-id="11493" xmlns:xlink="http://www.w3.org/1999/xlink" width="200" height="200"><defs><style type="text/css"></style></defs><path d="M924.16 126.464c-9.856 0.32-19.456 0.448-28.928 0.448-248.448 0-357.888-101.76-358.848-102.656L511.616 0l-24.96 24.256c-0.896 1.088-108.288 102.72-358.784 102.72-9.472 0-19.072-0.128-28.992-0.448L64 125.44v461.44c0 120.768 45.12 296.96 435.328 431.808l12.16 4.16 12.16-4.16c390.208-134.848 435.328-311.04 435.328-431.872V125.44l-34.816 1.088zM473.152 706.176L248.32 516.736l59.712-45.888 119.552 83.84S592.64 392.32 752 316.544l22.784 24.32S575.552 497.792 473.152 706.176z" p-id="11494"></path></svg>