<?xml version="1.0" standalone="no"?><!DOCTYPE svg PUBLIC "-//W3C//DTD SVG 1.1//EN" "http://www.w3.org/Graphics/SVG/1.1/DTD/svg11.dtd"><svg t="1530175791944" class="icon" style="" viewBox="0 0 1024 1024" version="1.1" xmlns="http://www.w3.org/2000/svg" p-id="4454" xmlns:xlink="http://www.w3.org/1999/xlink" width="200" height="200"><defs><style type="text/css"></style></defs><path d="M398.869 415.096c-32.517-3.689-62.436-9.036-89.763-16.067-27.342-7.012-52.636-15.514-75.909-25.49s-43.045-20.863-59.285-32.692c-16.259-11.81-28.812-24.743-37.678-38.787-8.865-14.026-13.297-28.432-13.297-43.218 0-29.54 16.796-56.69 50.42-81.45 33.609-24.743 79.233-44.326 136.86-58.732 57.623-14.406 120.407-21.609 188.386-21.609 50.975 0 99.734 4.26 146.276 12.743 46.544 8.501 86.609 19.948 120.236 34.354 33.609 14.406 60.396 31.581 80.34 51.53 19.947 19.948 29.918 41.004 29.918 63.166 0 29.557-16.813 56.706-50.42 81.45-33.626 24.761-79.233 44.326-136.86 58.732-57.623 14.406-120.788 21.609-189.495 21.609-33.987 0.001-67.232-1.831-99.734-5.539z m476.508-72.031v104.167c-3.706 28.812-22.543 55.045-56.518 78.679-33.987 23.652-79.233 42.301-135.748 55.963-56.518 13.677-118.02 20.5-184.508 20.5-100.477 0-186.915-14.96-259.308-44.88-72.413-29.921-111.196-66.662-116.357-110.261V343.066c9.593 40.638 50.42 74.991 122.451 103.059 72.031 28.085 156.613 42.111 253.769 42.111 97.138 0 181.548-14.026 253.214-42.111 71.648-28.067 112.65-62.42 123.003-103.059zM570.079 658.334c23.271-1.837 45.607-4.605 67.044-8.309 21.419-3.689 41.919-8.121 61.502-13.297 19.568-5.159 37.678-10.892 54.301-17.177 16.623-6.269 31.946-13.471 45.988-21.609 14.025-8.121 26.215-16.432 36.57-24.934 10.337-8.484 18.841-17.541 25.488-27.15 6.65-9.593 11.446-19.568 14.406-29.921v104.167c-2.96 21.437-14.787 41.747-35.461 60.949-20.692 19.22-47.651 35.652-80.897 49.315-33.245 13.677-72.583 24.571-118.02 32.692-45.433 8.138-92.912 12.191-142.398 12.191-100.477 0-186.915-14.96-259.308-44.88-72.413-29.921-111.196-66.662-116.357-110.261V515.943c10.337 41.382 51.339 75.909 123.007 103.613 71.65 27.706 155.869 41.556 252.659 41.556 24.383 0 48.208-0.917 71.477-2.771z m305.298 33.801v100.842c-5.175 43.599-44.153 80.34-116.91 110.261-72.777 29.921-159.402 44.88-259.863 44.88-100.477 0-186.915-14.96-259.308-44.88-72.413-29.921-111.196-66.662-116.357-110.261V692.135c11.81 40.638 53.363 74.627 124.668 101.951 71.286 27.34 154.951 41.004 250.998 41.004 96.028 0 179.885-13.661 251.553-41.004 71.65-27.323 113.396-61.311 125.222-101.951z" fill="" p-id="4455"></path></svg>