<?xml version="1.0" standalone="no"?><!DOCTYPE svg PUBLIC "-//W3C//DTD SVG 1.1//EN" "http://www.w3.org/Graphics/SVG/1.1/DTD/svg11.dtd"><svg t="1531898125047" class="icon" style="" viewBox="0 0 1024 1024" version="1.1" xmlns="http://www.w3.org/2000/svg" p-id="4057" xmlns:xlink="http://www.w3.org/1999/xlink" width="200" height="200"><defs><style type="text/css"></style></defs><path d="M30.27656 98.233302l0 706.870246 357.856317 0 0 60.575634 252.018827 0 0-60.575634 357.147166 0L997.298871 98.233302 30.27656 98.233302zM913.926022 724.637911 111.182218 724.637911 111.182218 179.75499l802.743804 0L913.926022 724.637911z" p-id="4058"></path><path d="M213.94365 866.023012l600.398306 0 0 51.556213-600.398306 0 0-51.556213Z" p-id="4059"></path><path d="M798.657742 506.170225 691.6281 506.170225c-2.619664-8.230452-5.786797-16.216333-9.468652-23.910573l77.679174-53.265134c8.112772-5.562692 10.199293-16.752546 4.635577-24.865317l-44.186362-64.439638c-5.562692-8.112772-16.752546-10.199293-24.865317-4.635577l-92.304266 63.293535c-0.080841 0.055259-0.156566 0.11461-0.23536 0.170892-10.461259-5.734608-21.529339-10.496052-33.081443-14.172791L569.801451 279.241842c0-9.837042-8.048303-17.885346-17.885346-17.885346l-78.133521 0c-9.837042 0-17.885346 8.048303-17.885346 17.885346l0 105.101733c-10.780531 3.431146-21.13639 7.81192-30.973432 13.041014l-90.902336-62.33265c-8.112772-5.562692-19.302625-3.477194-24.865317 4.635577l-44.186362 64.439638c-5.562692 8.112772-3.477194 19.302625 4.635577 24.865317l74.875315 51.342342c-4.081968 8.28571-7.570419 16.914228-10.410094 25.833365L229.627864 506.168178c-9.837042 0-17.885346 8.048303-17.885346 17.885346l0 78.133521c0 9.837042 8.048303 17.885346 17.885346 17.885346l104.442724 0c0.025583 0.079818 0.053212 0.157589 0.078795 0.237407l62.143339 0 89.245603 0 57.208956 0L664.897296 620.309798l26.65201 0c0.025583-0.079818 0.053212-0.157589 0.078795-0.237407l107.029642 0c9.837042 0 17.885346-8.048303 17.885346-17.885346l0-78.133521C816.543088 514.219551 808.494785 506.170225 798.657742 506.170225zM574.514799 555.63173c0 33.907251-27.488051 61.395302-61.395302 61.395302-33.907251 0-61.395302-27.488051-61.395302-61.395302s27.488051-61.395302 61.395302-61.395302c26.913976 0 49.76645 17.325597 58.055231 41.425482 2.179642 4.442172 3.867074 9.169847 4.966105 14.121626l-1.910513 0C574.412468 551.709397 574.514799 553.657772 574.514799 555.63173z" p-id="4060"></path></svg>