<?xml version="1.0" standalone="no"?><!DOCTYPE svg PUBLIC "-//W3C//DTD SVG 1.1//EN" "http://www.w3.org/Graphics/SVG/1.1/DTD/svg11.dtd"><svg t="1531193513985" class="icon" style="" viewBox="0 0 1024 1024" version="1.1" xmlns="http://www.w3.org/2000/svg" p-id="4048" xmlns:xlink="http://www.w3.org/1999/xlink" width="200" height="200"><defs><style type="text/css"></style></defs><path d="M569.7 895.6l13.7-79.4-57.7-56.2c-20-19.4-27.2-45.6-19.2-69.9S535.6 649 563 645l69.7-10.2c-3-2.1-5.7-4.1-8.3-6.4-8.7-7.6-14.9-15.7-18.7-24-3.8-8.3-6-16.8-6.5-25.1-0.5-8.4 0-16.7 1.6-24.8 1.1-6.5 2.9-12.1 4.9-16.7 2.1-4.6 4.8-8.4 8.1-11.8 3.3-3.2 7-6.4 11.4-9.2 4.4-3 8.9-6.5 13.8-11 4.3-3.8 8.1-9.1 11.8-15.9 3.3-6.7 6.5-13.7 9.2-20.6 2.7-7.9 5.2-16.5 7.3-25.1 5.4-1.6 10.5-4.4 15.4-8.9 4.3-3.8 8.1-9.1 11.8-15.9 3.3-6.8 6-15.7 7.6-27.2 1.1-8.7 1-15.9-0.3-21.9-1.3-6-3.2-10.8-5.2-14.6-2.1-4.4-5.1-7.8-8.9-9.8 0.5-21.6-0.8-43.4-4.1-65-2.5-18.4-7.3-38-14.1-58.8s-17-39.9-30.5-57.2c-6-7.6-13.8-15.1-23.7-22.4-9.5-7.3-20.8-13.8-33.2-19.9-12.5-6-25.9-10.8-40.2-14.6s-29.5-5.7-45.1-5.7c-12.5 0-25.4 1.3-38.6 3.3-13.3 2.4-26.4 6-39.4 11.4s-25.9 12.9-38.6 22.4c-12.7 9.5-24.1 21.6-34.5 36.2-10.8 15.6-19.1 33.2-24.8 52.7s-9.7 38-11.8 55.3c-2.9 20.6-3.8 41.3-3.3 61.8-4.4 5.6-7.8 11.1-9.8 17.2-2.2 5.4-3.7 11.8-4.4 19.1-1 7.3 0 15.7 2.7 24.8 2.9 9.2 6 16.2 9.8 21.1 3.8 4.9 7.3 8.7 10.6 11.4 3.8 2.9 7.6 4.6 11.4 5.7 2.7 8.6 5.4 17 8.1 25.1 2.7 7 5.6 13.8 8.9 20.6s7 12.1 11.4 15.9c9.4 7.6 17.5 14.9 24.8 21.9 7.3 7 11.4 17 12.5 30 0.5 8.3 0.8 15.9 0.8 22.9 0 7.1-1.3 13.8-3.7 20.3-2.4 6.5-6.8 13-13 19.5s-14.9 13.3-26.4 20.3c-14 9.2-30.3 16.2-49.1 21.1-18.7 4.9-100.4 33-118 39.1-17.5 5.9-32.9 14-45.9 24.3-12.9 10.2-21 25.4-24.3 45.4-5.4 34.6-6.5 40.2-3.7 62.4 2.9 22.1 7.3 35.3 13.3 39.7 4.9 3.7 18.9 8.1 42.3 13.3s170.1 32.9 340.5 32.9c22.2 0 43.7-0.5 64.3-1.4-0.7-7-0.5-14.6 0.8-22.4z m337-195.7l-85-12.4c-13-1.9-28.4-13-34.3-24.9l-38-77c-2.9-5.9-6.8-8.9-10.6-8.9s-7.6 3-10.6 8.9l-38 77c-5.9 11.8-21.3 23-34.3 24.9l-85 12.4c-13 1.9-16 11-6.5 20.2l61.5 59.9c9.4 9.2 15.2 27.3 13 40.3L624.5 905c-1.6 9.4 2.1 14.9 8.6 14.9 2.5 0 5.4-0.8 8.6-2.5l75.9-40c5.9-3 13.5-4.6 21.1-4.6s15.4 1.6 21.1 4.6l75.9 40c3.2 1.7 6.2 2.5 8.6 2.5 6.5 0 10.2-5.6 8.6-14.9l-14.5-84.7c-2.2-13 3.7-31.1 13-40.3l61.5-59.9c9.7-9.2 6.8-18.3-6.2-20.2z" p-id="4049"></path></svg>