<?xml version="1.0" standalone="no"?><!DOCTYPE svg PUBLIC "-//W3C//DTD SVG 1.1//EN" "http://www.w3.org/Graphics/SVG/1.1/DTD/svg11.dtd"><svg t="1525263871730" class="icon" style="" viewBox="0 0 1024 1024" version="1.1" xmlns="http://www.w3.org/2000/svg" p-id="3566" xmlns:xlink="http://www.w3.org/1999/xlink" width="200" height="200"><defs><style type="text/css"></style></defs><path d="M1024 448l-100.92544 0c-27.648-178.23744-168.83712-319.42656-347.07456-347.07456l0-100.92544-128 0 0 100.92544c-178.23744 27.648-319.42656 168.83712-347.07456 347.07456l-100.92544 0 0 128 100.92544 0c27.648 178.23744 168.83712 319.42656 347.07456 347.07456l0 100.92544 128 0 0-100.92544c178.23744-27.648 319.42656-168.83712 347.07456-347.07456l100.92544 0 0-128zM792.82176 448l-99.75808 0c-19.29216-54.55872-62.50496-97.77152-117.06368-117.06368l0-99.75808c107.52 24.49408 192.32768 109.30176 216.82176 216.82176zM512 576c-35.34848 0-64-28.65152-64-64s28.65152-64 64-64c35.34848 0 64 28.65152 64 64s-28.65152 64-64 64zM448 231.17824l0 99.75808c-54.55872 19.29216-97.77152 62.50496-117.06368 117.06368l-99.75808 0c24.49408-107.52 109.30176-192.32768 216.82176-216.82176zM231.17824 576l99.75808 0c19.29216 54.55872 62.50496 97.77152 117.06368 117.06368l0 99.75808c-107.52-24.49408-192.32768-109.30176-216.82176-216.82176zM576 792.82176l0-99.75808c54.55872-19.29216 97.77152-62.50496 117.06368-117.06368l99.75808 0c-24.49408 107.52-109.30176 192.32768-216.82176 216.82176z" p-id="3567"></path></svg>