<?xml version="1.0" standalone="no"?><!DOCTYPE svg PUBLIC "-//W3C//DTD SVG 1.1//EN" "http://www.w3.org/Graphics/SVG/1.1/DTD/svg11.dtd"><svg t="1525263854142" class="icon" style="" viewBox="0 0 1024 1024" version="1.1" xmlns="http://www.w3.org/2000/svg" p-id="3439" xmlns:xlink="http://www.w3.org/1999/xlink" width="200" height="200"><defs><style type="text/css"></style></defs><path d="M512 256c-141.376 0-256 114.624-256 256s114.624 256 256 256 256-114.624 256-256S653.376 256 512 256zM512 704c-106.016 0-192-85.984-192-192s85.984-192 192-192 192 85.984 192 192S618.016 704 512 704zM512 0C229.216 0 0 229.216 0 512s229.216 512 512 512 512-229.216 512-512S794.784 0 512 0zM512 896C299.936 896 128 724.064 128 512S299.936 128 512 128s384 171.936 384 384S724.064 896 512 896zM512 416c-53.024 0-96 42.976-96 96s42.976 96 96 96 96-42.976 96-96S565.024 416 512 416z" p-id="3440"></path></svg>