<?xml version="1.0" standalone="no"?><!DOCTYPE svg PUBLIC "-//W3C//DTD SVG 1.1//EN" "http://www.w3.org/Graphics/SVG/1.1/DTD/svg11.dtd"><svg t="1527152478455" class="icon" style="" viewBox="0 0 1024 1024" version="1.1" xmlns="http://www.w3.org/2000/svg" p-id="5618" xmlns:xlink="http://www.w3.org/1999/xlink" width="200" height="200"><defs><style type="text/css"></style></defs><path d="M903.440204 567.92573 120.558773 567.92573c-30.879288 0-55.920614-25.035186-55.920614-55.92573 0-30.879288 25.041326-55.920614 55.920614-55.920614L903.440204 456.079386c30.884404 0 55.920614 25.041326 55.920614 55.920614C959.360817 542.890544 934.325631 567.92573 903.440204 567.92573zM903.440204 232.398977 120.558773 232.398977c-30.879288 0-55.920614-25.035186-55.920614-55.914474 0-30.884404 25.041326-55.92573 55.920614-55.92573L903.440204 120.558773c30.884404 0 55.920614 25.041326 55.920614 55.92573C959.360817 207.363791 934.325631 232.398977 903.440204 232.398977zM120.558773 791.599999 903.440204 791.599999c30.884404 0 55.920614 25.041326 55.920614 55.92573 0 30.879288-25.035186 55.914474-55.920614 55.914474L120.558773 903.440204c-30.879288 0-55.920614-25.035186-55.920614-55.914474C64.639183 816.641325 89.679485 791.599999 120.558773 791.599999z" p-id="5619"></path></svg>