<?xml version="1.0" standalone="no"?><!DOCTYPE svg PUBLIC "-//W3C//DTD SVG 1.1//EN" "http://www.w3.org/Graphics/SVG/1.1/DTD/svg11.dtd"><svg t="1530177124281" class="icon" style="" viewBox="0 0 1024 1024" version="1.1" xmlns="http://www.w3.org/2000/svg" p-id="20361" xmlns:xlink="http://www.w3.org/1999/xlink" width="200" height="200"><defs><style type="text/css"></style></defs><path d="M0 967.104v-113.728h1024v113.728H0zM0 56.896h1024v739.584H0V56.896z m910.272 625.792v-512H120.512l-6.656 512h796.416zM220.672 414.912l120.64-120.704 40.256 40.192-120.64 120.704 120.64 120.704-40.256 40.192L220.672 495.36l-40.256-40.256 40.256-40.192z m384.256-197.824L473.472 652.8l-54.464-16.512 131.52-435.712 54.4 16.512z m66.752 68.288l135.488 127.36 45.184 42.368-45.184 42.496-135.488 127.232-45.184-42.368 135.488-127.296-135.488-127.36 45.184-42.432z" p-id="20362"></path></svg>