<?xml version="1.0" standalone="no"?><!DOCTYPE svg PUBLIC "-//W3C//DTD SVG 1.1//EN" "http://www.w3.org/Graphics/SVG/1.1/DTD/svg11.dtd"><svg t="1525264854705" class="icon" style="" viewBox="0 0 1024 1024" version="1.1" xmlns="http://www.w3.org/2000/svg" p-id="7887" xmlns:xlink="http://www.w3.org/1999/xlink" width="200" height="200"><defs><style type="text/css"></style></defs><path d="M512 62C264.5 62 62 264.5 62 512s202.5 450 450 450 450-202.5 450-450S759.5 62 512 62z m360 511.875H765.125c-16.875 0-28.125-5.625-33.75-16.875v-5.625L703.25 478.25l-67.5 196.875C630.125 692 618.875 703.25 602 703.25s-28.125-5.625-33.75-22.5l-73.125-140.625L483.875 557c-5.625 11.25-16.875 16.875-33.75 16.875H163.25c-22.5 0-39.375-16.875-39.375-39.375s16.875-39.375 39.375-39.375h264.375l33.75-61.875C467 422 483.875 422 495.125 422c16.875 0 28.125 5.625 33.75 22.5l61.875 123.75 73.125-208.125c5.625-16.875 22.5-22.5 39.375-22.5 11.25 0 28.125 0 39.375 16.875l50.625 140.625H872c22.5 0 39.375 16.875 39.375 39.375s-22.5 39.375-39.375 39.375z" p-id="7888"></path></svg>