<?xml version="1.0" standalone="no"?><!DOCTYPE svg PUBLIC "-//W3C//DTD SVG 1.1//EN" "http://www.w3.org/Graphics/SVG/1.1/DTD/svg11.dtd"><svg t="1529985532393" class="icon" style="" viewBox="0 0 1024 1024" version="1.1" xmlns="http://www.w3.org/2000/svg" p-id="3152" xmlns:xlink="http://www.w3.org/1999/xlink" width="200" height="200"><defs><style type="text/css"></style></defs><path d="M502.9 81.9c120.7 0 218.6 96.3 218.6 215 0 118.8-97.9 215-218.6 215s-218.6-96.3-218.6-215S382.2 81.9 502.9 81.9L502.9 81.9zM502.9 81.9c120.7 0 218.6 96.3 218.6 215 0 118.8-97.9 215-218.6 215s-218.6-96.3-218.6-215S382.2 81.9 502.9 81.9L502.9 81.9zM420.9 583.7l182.2 0c156 0 282.4 124.3 282.4 277.7l0 17.9c0 60.5-126.4 62.8-282.4 62.8L420.9 942.1c-156 0-282.4-0.1-282.4-62.8l0-17.9C138.5 708 264.9 583.7 420.9 583.7L420.9 583.7z" p-id="3153" fill="#dbdbdb"></path></svg>