<?xml version="1.0" standalone="no"?><!DOCTYPE svg PUBLIC "-//W3C//DTD SVG 1.1//EN" "http://www.w3.org/Graphics/SVG/1.1/DTD/svg11.dtd"><svg t="1529913396050" class="icon" style="" viewBox="0 0 1024 1024" version="1.1" xmlns="http://www.w3.org/2000/svg" p-id="5320" xmlns:xlink="http://www.w3.org/1999/xlink" width="200" height="200"><defs><style type="text/css"></style></defs><path d="M921.6 755.2c-12.8 0-32-6.4-44.8-12.8l-294.4 179.2c0 32-19.2 64-44.8 76.8-12.8 6.4-19.2 6.4-32 6.4-44.8 0-76.8-38.4-76.8-76.8 0 0 0 0 0 0l-275.2-160c-12.8 19.2-38.4 25.6-57.6 25.6-38.4 0-76.8-32-76.8-76.8 0-38.4 25.6-64 57.6-76.8l70.4-294.4C121.6 339.2 96 307.2 96 275.2c0-44.8 32-76.8 76.8-76.8 25.6 0 44.8 12.8 57.6 32l300.8-115.2c0-6.4 0-6.4 0-12.8 0-44.8 32-76.8 76.8-76.8 38.4 0 76.8 32 76.8 76.8 0 25.6-12.8 44.8-25.6 57.6l262.4 441.6c0 0 0 0 6.4 0 44.8 0 76.8 38.4 76.8 76.8C1004.8 723.2 966.4 755.2 921.6 755.2zM921.6 640c-19.2 0-38.4 19.2-38.4 38.4 0 19.2 19.2 38.4 38.4 38.4 19.2 0 38.4-19.2 38.4-38.4C960 652.8 947.2 640 921.6 640zM569.6 883.2l281.6-172.8c0-6.4-6.4-6.4-6.4-12.8l-294.4 12.8-19.2 140.8C550.4 857.6 563.2 870.4 569.6 883.2zM582.4 518.4l-19.2 153.6 256-12.8L582.4 518.4 582.4 518.4zM544 499.2 390.4 409.6 313.6 499.2l83.2 185.6 121.6-6.4L544 499.2zM473.6 953.6C473.6 953.6 480 953.6 473.6 953.6c6.4 6.4 19.2 12.8 32 12.8 25.6 0 38.4-19.2 38.4-38.4 0-25.6-19.2-38.4-38.4-38.4-12.8 0-19.2 6.4-25.6 12.8 0 0 0 0 0 0-6.4 6.4-12.8 19.2-12.8 25.6C467.2 934.4 467.2 947.2 473.6 953.6zM473.6 851.2c6.4 0 12.8-6.4 19.2-6.4L512 710.4l-96 6.4L473.6 851.2zM441.6 883.2l6.4-6.4-76.8-147.2-192 6.4L441.6 883.2zM166.4 691.2l185.6-6.4L281.6 531.2l-121.6 147.2L166.4 691.2zM57.6 716.8c0 19.2 19.2 38.4 38.4 38.4 19.2 0 38.4-19.2 38.4-38.4 0-19.2-19.2-38.4-38.4-38.4C76.8 678.4 57.6 691.2 57.6 716.8zM172.8 236.8C147.2 236.8 134.4 256 134.4 275.2c0 19.2 19.2 38.4 38.4 38.4 19.2 0 38.4-19.2 38.4-38.4C204.8 256 192 236.8 172.8 236.8zM198.4 345.6 185.6 345.6 115.2 640l19.2 6.4 121.6-153.6L198.4 345.6zM230.4 320l57.6 140.8 57.6-70.4L230.4 320 230.4 320zM544 153.6 243.2 268.8l0 12.8 128 83.2L544 153.6 544 153.6zM409.6 384l134.4 76.8 38.4-281.6L576 172.8 409.6 384zM601.6 64C582.4 64 563.2 83.2 563.2 102.4c0 19.2 19.2 38.4 38.4 38.4 19.2 0 38.4-19.2 38.4-38.4C640 83.2 627.2 64 601.6 64zM620.8 185.6c0 0-32 294.4-32 294.4l268.8 153.6c6.4-12.8 12.8-19.2 19.2-25.6L620.8 185.6z" p-id="5321"></path></svg>